<?xml version="1.0" standalone="no"?>
<!DOCTYPE svg PUBLIC "-//W3C//DTD SVG 20010904//EN"
 "http://www.w3.org/TR/2001/REC-SVG-20010904/DTD/svg10.dtd">
<svg version="1.0" xmlns="http://www.w3.org/2000/svg"
 width="266.000000pt" height="582.000000pt" viewBox="0 0 266.000000 582.000000"
 preserveAspectRatio="xMidYMid meet">

<g transform="translate(0.000000,582.000000) scale(0.100000,-0.100000)"
fill="#000000" stroke="none">
<path d="M2158 5795 c-15 -8 -73 -22 -130 -30 -57 -8 -137 -20 -178 -26 -139
-21 -313 -69 -710 -199 -217 -71 -476 -154 -574 -184 -99 -31 -182 -58 -185
-62 -3 -3 3 -12 14 -21 21 -16 63 -15 265 7 198 22 446 28 709 19 146 -5 279
-13 296 -17 l30 -8 -65 -36 c-73 -41 -222 -94 -456 -163 -399 -118 -677 -239
-925 -403 -190 -126 -254 -202 -197 -233 24 -13 321 -8 623 10 740 45 1004 54
1280 47 235 -6 389 -15 382 -23 -2 -2 -80 -12 -173 -23 -93 -11 -296 -40 -452
-65 -358 -58 -609 -91 -807 -107 -156 -12 -184 -23 -115 -42 30 -9 322 8 355
20 18 7 36 -202 42 -491 4 -216 0 -303 -26 -645 -33 -412 -57 -685 -67 -757
l-6 -43 -74 0 c-41 0 -90 -6 -108 -14 -56 -23 -111 -82 -150 -159 -36 -70 -38
-80 -43 -195 -7 -137 5 -220 43 -298 54 -114 181 -146 237 -60 27 41 92 288
128 484 l33 183 26 -6 c106 -26 286 -220 424 -457 l56 -96 0 -251 c0 -351 26
-571 90 -767 26 -77 65 -116 117 -118 34 -1 40 3 55 34 24 49 27 353 4 490
-22 136 -89 366 -146 501 l-49 116 9 149 c6 82 14 255 20 384 6 129 17 305 25
390 24 244 51 905 57 1358 l3 203 -23 6 c-13 3 -29 0 -35 -6 -9 -9 -14 -121
-19 -389 -3 -207 -11 -465 -17 -572 -6 -107 -13 -253 -16 -325 -4 -71 -13
-195 -20 -275 -8 -80 -20 -257 -26 -395 -6 -137 -14 -288 -17 -335 l-7 -85
-30 49 c-45 77 -136 195 -204 268 -71 76 -150 132 -219 155 -26 9 -48 17 -50
18 -2 2 4 68 12 146 8 79 27 290 41 469 14 179 30 380 35 448 25 316 -2 833
-47 878 -15 15 -20 14 167 40 63 8 237 35 385 59 149 24 333 51 410 59 77 9
184 21 237 27 53 6 105 17 114 24 16 12 16 13 -3 23 -114 61 -776 78 -1463 38
-146 -9 -346 -21 -445 -27 -99 -6 -254 -13 -345 -16 l-165 -5 40 42 c49 51
128 108 265 190 214 129 448 226 813 335 334 99 470 154 533 212 51 47 12 69
-147 82 -218 19 -558 24 -742 12 -99 -7 -180 -11 -182 -9 -2 2 189 66 423 142
440 144 666 207 806 226 265 36 340 56 334 90 -4 20 -47 23 -80 5z m-1082
-3567 c-25 -192 -115 -560 -150 -613 -22 -33 -49 -32 -80 6 -46 54 -61 127
-61 290 l0 145 34 68 c36 70 105 141 144 149 12 2 44 5 71 6 l49 1 -7 -52z
m693 -791 c82 -256 103 -384 102 -612 -1 -168 -5 -205 -20 -205 -26 0 -85 238
-105 426 -14 127 -23 484 -11 484 2 0 17 -42 34 -93z"/>
<path d="M2077 4373 c-19 -18 3 -514 33 -787 20 -174 63 -329 240 -871 103
-315 173 -588 207 -812 25 -168 25 -742 -1 -878 -39 -209 -138 -443 -244 -576
-143 -180 -297 -287 -515 -361 -162 -54 -408 -49 -667 13 -238 58 -534 266
-693 487 -145 201 -215 357 -282 627 -67 266 -79 374 -72 654 10 435 39 548
252 1006 200 429 254 577 295 799 22 123 28 402 10 497 -14 70 -47 139 -74
149 -35 13 -40 -5 -16 -72 20 -55 24 -88 27 -259 4 -171 2 -211 -16 -307 -42
-217 -102 -378 -309 -822 -207 -446 -236 -573 -237 -1045 0 -301 5 -347 75
-620 44 -174 71 -248 135 -376 126 -252 286 -432 518 -586 166 -110 291 -158
512 -199 76 -14 148 -19 295 -19 194 0 196 0 287 32 116 41 218 91 311 156 81
56 212 190 268 274 93 140 176 353 209 533 38 209 29 741 -16 991 -31 174
-113 482 -189 714 -174 530 -219 694 -240 871 -20 181 -40 493 -40 635 0 125
-2 148 -16 153 -20 8 -39 8 -47 -1z"/>
</g>
</svg>
