<svg xmlns="http://www.w3.org/2000/svg" version="1" viewBox="0 0 1654 649">
  <path d="M118.9 19.7c-.1 9.8-.2 20-.3 22.7-.1 2.8.4 5.1 1 5.3 1.5.5 2.4-9.9 2.4-29.5 0-13.7-.2-16.2-1.5-16.2s-1.5 2.7-1.6 17.7zM1194.5 33.2c-.2.7-.6 4.3-.8 8.1-.5 7.1.6 9.6 2.3 5.2 1.3-3.5 1.3-14.5 0-14.5-.6 0-1.2.6-1.5 1.2zM1083 38.3c0 1.3 33.9 12.6 42.8 14.3 3.7.8 4.5-1.1 1-2.5-3.6-1.4-42.2-13.1-43-13.1-.5 0-.8.6-.8 1.3zM148 61.6c-4.6 4.7-20.6 18.8-29.3 25.9l-4.8 3.8L100 77.5C89.8 67.3 85.7 63.9 84.9 64.7c-.7.7-1.2 9.7-1.5 25.9l-.5 24.9-5.2 4.4c-7.9 6.8-17.7 17.3-18.3 19.8-1.3 4.9-.3 5.3 12.5 5.3h12l.5 4.2c1.6 13.3 1.6 21.3.1 23.6-1.9 2.6-1.1 4.9 1.1 3.1 1.2-1 1.4.7 1.4 11.5 0 10.7.2 12.6 1.5 12.6 1.4 0 1.6-2.1 1.4-14.6l-.1-14.5 8.8-13.4 8.9-13.3 11-.6c6-.3 17.4-.6 25.1-.5 14 .1 18.4-.7 18.4-3.4 0-.7-2.7-3.5-6-6.2-3.3-2.8-10.3-9.6-15.5-15.2l-9.6-10.2 8.7-15.8c8.1-14.5 15.4-30.7 15.4-34 0-2.5-2.6-1.3-7 3.3zm.6 6.2c-2 5.5-17.9 35.6-20.2 38.1-.5.6-5.9-4.5-9.4-9l-2.9-3.5 11.7-9.7c6.4-5.3 13.9-11.9 16.7-14.7 2.7-2.7 5-5 5.2-5 .1 0-.4 1.7-1.1 3.8zM108 90l2.8 3.6-11.4 8.9c-6.3 5-11.9 9.2-12.5 9.3-1 .4-1.1-24-.1-37.2l.4-5.9 9 8.9c4.9 4.9 10.2 10.5 11.8 12.4zm11.9 12.4c4.3 4.4 6.2 6.9 5.8 8-.4.9-4.8 8-9.8 15.7-5.9 9-10.1 14.4-11.6 15-1.3.5-5.8.9-9.9.9H87V116.3l12.7-10.2c7-5.5 12.9-10.1 13.3-10.1.3 0 3.4 2.9 6.9 6.4zm24.1 23.8l14.2 13.8-4.8.1c-2.7 0-13.5.1-24.1.2l-19.2.3 2-3.1c1.1-1.6 5.2-8.1 9.1-14.3 4-6.2 7.5-11.1 7.9-11 .3.2 7.1 6.5 14.9 14zM84 131v11H73c-8.1 0-11-.3-11-1.3 0-1.4 19.5-20.7 21-20.7.6 0 1 4.1 1 11zm16.8 17.7c-1.2 2.1-4.4 6.9-7 10.7-5.4 7.8-5.4 7.9-6.1-6.2l-.5-8.2h16l-2.4 3.7zM1158 67c-1.1 1.1-2.2 3.2-2.6 4.7-.3 1.6-1.3 5.2-2.2 8.2-1.4 4.7-2 5.5-5.6 7.1-5.4 2.3-7.3 4.5-5.6 6.5.7.8 2.1 1.5 3.1 1.5 1.1 0 1.9.4 1.9.9 0 1.8-5.9 13.8-7.4 15-.9.7-1.3 1.7-1 2.2.3.5-1.3 4.1-3.5 8-4.4 7.6-4.8 8.9-2.8 8.9.7 0 3.6-4.2 6.4-9.3l5-9.2 10.8-5.9 10.8-5.8 10.3 4.1c5.6 2.2 10.7 4.1 11.3 4.1 2.3 0 2-2.4-1.4-9.7-2.7-5.9-3.2-7.9-2.3-8.5.7-.4 5.9-3.6 11.6-7 15.7-9.4 14-10.5-8.5-5.5l-10.3 2.3-3.5-5.3c-3.4-5.1-8.5-9.3-11.2-9.3-.7 0-2.2.9-3.3 2zm8.4 4.5c2 1.9 4.2 4.8 5 6.3l1.5 2.8-9 2.1c-7.9 1.7-8.9 1.8-8.3.4.4-.9 1.3-4.3 2.1-7.6.8-3.2 1.7-6.3 1.9-6.7 1-1.6 3.4-.7 6.8 2.7zm27.6 7.9c0 .6-12 7.6-13 7.6s-3.4-3.9-2.8-4.5c1.1-1.1 15.8-4 15.8-3.1zm-17.5 7.2c.9 1.4 1.5 2.7 1.3 2.8-.2.2-2.9 1.7-6.1 3.5l-5.7 3.3-7-1.3c-3.9-.7-7-1.7-7-2.4 0-2.6 2.9-4.5 10-6.4 10.4-2.7 12.4-2.6 14.5.5zM1149 91c0 .5-1 1-2.2 1-1.9 0-2-.2-.8-1 1.9-1.3 3-1.3 3 0zm35 12.8c-.8.3-14-5.5-14-6.2 0-.3 2.1-1.7 4.8-3l4.7-2.4 2.6 5.6c1.4 3.2 2.3 5.8 1.9 6zm-25.1-5.8c2.1.5 1.6 1-4.6 4.3-3.9 2-7.3 3.7-7.6 3.7-.3 0 .4-2.2 1.6-4.9 2.2-5.4 2.2-5.4 10.6-3.1zM1593.2 82.2c-6.6 7.4-8.6 10.8-6.4 10.8 1.4 0 16.2-17.2 15.6-18.1-1-1.7-1.9-.9-9.2 7.3zM14.5 75.5c-.5.2-3.6 1.1-6.7 2-3.7 1-5.8 2.1-5.8 3 0 1.8-.8 1.9 7.5-.5 9.1-2.6 22.1-2.7 26.4-.3 4.1 2.4 5.3.7 1.6-2.3-2.7-2.2-3.9-2.4-12.5-2.3-5.2 0-9.9.2-10.5.4zM1103.8 103.8c-5.9 1.7-8.8 3-8.8 4 0 1.1.8 1.3 3 .8 7.2-1.4 17.1-4.9 16.7-5.9-.5-1.7-1.7-1.6-10.9 1.1zM1233 113.3c0 1.4 8.3 8.7 9.9 8.7 2.4 0 .8-2.7-3.5-6.3-5-3.9-6.4-4.5-6.4-2.4zM1613.5 143.4c-9.6 6.4-23.1 15-34.7 22.2l-11.7 7.3-5.1-6.5c-6.1-7.5-9.5-10.4-12.4-10.4-1.8 0-2.3 1.1-3.9 8.2-1 4.6-2.7 12.3-3.9 17.1l-2.2 8.8-6.4 5.1c-9 7-14.8 13.3-17.7 19.2-4.6 9.1-2.7 13.8 6.1 15 8.5 1.1 8.4.1 2.9 22-4.5 17.6-5.1 22.8-2.6 20 .5-.5 3-9.6 5.7-20.2l4.9-19.3 7 .6c3.9.4 7.2.9 7.4 1.1.3.2-.7 1.7-2.1 3.2-5.4 5.9-13.2 18.2-12.1 19.3.7.7 3-1.8 7.7-8.3 3.6-5.1 7.5-10.4 8.6-11.6l2-2.4 10.7 1.5c22.8 3.3 31.3 3.2 33.7-.5 1.5-2.4-2-12.7-8.9-26.3-3-6-5.5-11.5-5.5-12.2 0-.7 5.6-7.8 12.5-15.8s14.4-17.1 16.7-20.3c2.3-3.1 6.1-8.3 8.5-11.4 6.6-8.9 4.1-11.5-5.2-5.4zm2.9 2.8c-5.5 9-35.5 45.9-37.3 45.8-.6-.1-10.1-15.4-10.1-16.3 0-.3 6.2-4.3 13.8-9.1 7.5-4.7 18.2-11.5 23.7-15 11-7.2 10.9-7.1 9.9-5.4zm-57.8 20.9c6.6 8 6.8 7.2-4.1 13.9-3.8 2.4-7.9 4.9-9.1 5.7-2.1 1.3-2.1 1.3.4-9.4 4.2-18.4 4.1-18.3 5.7-17.7.8.3 4 3.7 7.1 7.5zm11.6 16.6c2 3.2 4.2 7.1 5.1 8.8l1.5 3-8 9.5c-4.4 5.2-10.5 13-13.6 17.4l-5.7 7.8-7.9-.6c-4.3-.3-8-.7-8.2-.8-.3-.4 8.2-35.8 8.9-36.4 1.4-1.4 22.4-14.4 23.3-14.4.6 0 2.7 2.6 4.6 5.7zm-33.3 16.5c-3 13.6-6.2 26.4-6.8 27-.3.4-3.4.2-6.9-.5-7.6-1.4-8.4-3-5.1-10.6 1.5-3.6 4.5-7.3 10.1-12.6 4.4-4.1 8.3-7.5 8.8-7.5.4 0 .4 1.9-.1 4.2zm47.3 10.6c5.7 11.6 8.8 19.2 8.8 21.8 0 2.3-8 2.6-22.3.9-19.5-2.3-18.8-1.7-13-9.6 5.7-7.9 19.6-24.8 20.3-24.9.3 0 3.1 5.3 6.2 11.8zM1155.2 153.4c.2 3.1.8 5.6 1.3 5.6 1.5 0 1.3-10.2-.3-10.8-1-.3-1.2.9-1 5.2zM1507 149.4c0 .9.8 1.6 1.9 1.6 1.1 0 5.8 1.3 10.4 3 9.8 3.5 9.7 3.4 9.7 1.6 0-1.4-12.5-6.3-18.7-7.3-2.6-.4-3.3-.2-3.3 1.1zM40.9 188.9c-2.4 1.5-5.8 4.4-7.5 6.2-4.1 4.5-12.4 16.4-12.4 17.8 0 2.8 2.9.5 7-5.7 6.2-9.3 9.6-12.9 14.6-15.8 2.4-1.4 4.4-3.2 4.4-4 0-2-1-1.8-6.1 1.5zM125 197.5c0 2.2 6.7 15.2 10.8 21 8.4 11.8 24.5 30.6 25.5 29.6.7-.7.7-1.4 0-2.3-.6-.7-6.6-8.3-13.5-16.8-8.9-11.1-13.6-18-16.6-24.3-3.9-8.1-6.2-10.8-6.2-7.2zM1643 205.1c-12 4.1-14 5.1-14 6.6 0 1 .6 1.3 1.8.8.9-.3 6.1-2 11.5-3.8 5.7-1.8 9.7-3.6 9.7-4.4 0-1.7-2.4-1.5-9 .8zM508 210.5c-.6 1.4-1 2.8-1 3 0 .2-3.2 5.9-7 12.6-6.8 12-7.5 14-5.5 14.1 1.6.1 16.5-26.6 16.5-29.6 0-2.7-2-2.8-3-.1zM1473.5 238.4c-10.6 5.5-18.1 10-18.3 11-.2.9 0 1.6.5 1.6 1.9-.1 37.7-19.6 38.1-20.8.7-2.3-2.4-1.1-20.3 8.2zM519 264.9c-1.4.5-7.9 3.5-14.6 6.9l-12 6-4.5-3.5c-5.3-4.3-10.2-6.5-12.4-5.7-2.5 1-4.2 5.3-5 12.5-.4 3.6-1 7.1-1.4 7.6-.3.6-9.1 5.6-19.6 11.2-10.4 5.6-19.4 10.6-19.9 11.1-2.1 2.1 1.3 2.5 18.7 2.5h18.2l-.4 4.5c-.1 2.5-.9 8.1-1.7 12.5-1.7 10-1.8 14.8-.2 14.3 1.1-.4 2.4-7.1 4.6-23.5.5-3.5 1.1-6.6 1.5-6.9.7-.7 16.8 1.6 17.9 2.5.7.6-10.3 15.8-26 35.9-4 5.1-7 9.7-6.6 10.3.4.7 1 .6 2-.2 1.4-1.1 15-18.6 28.2-36l7.2-9.7 7.3 1.4c3.9.8 10.4 2 14.3 2.8 7.5 1.4 10.4.8 10.4-2 0-1.7-9.7-16.1-13.8-20.6l-2.5-2.7 5.5-8.8c12.3-19.4 13.5-25 4.8-22.4zm2 4.2c0 1.7-13.5 23.9-14.5 23.9-.8 0-11-11.3-11-12.2 0-1.1 22.2-12.7 24.3-12.8.6 0 1.2.5 1.2 1.1zm-38.9 4.7c7.8 5 7.8 5.4-.4 9.5-4 2-7.7 3.7-8.1 3.7-1 0 .2-10.2 1.5-13.7 1.1-2.9 1.6-2.9 7 .5zm16.5 15.8l6.3 7-6.6 8.8c-5.8 7.9-6.8 8.8-9.2 8.3-1.4-.3-6.4-1.1-10.9-1.8l-8.4-1.3.6-3c.3-1.6.9-5.9 1.2-9.6l.7-6.7 9.1-4.6c5-2.5 9.5-4.5 10-4.3.5.1 3.8 3.4 7.2 7.2zM468.1 302c-.5 4-1.1 7.3-1.3 7.5-.6.7-28.8 1.1-28.8.5 0-1.1 30.5-16.9 30.8-16 .2.5-.1 4.1-.7 8zm47.1 7.1c5.1 7.3 6.3 9.5 5 9.7-.9.1-6.9-.8-13.4-2l-11.6-2.3 5.6-7.7c3.2-4.2 6.2-7.5 6.7-7.4.6.1 4 4.5 7.7 9.7zM412.5 266c-.3.6.2 1.3 1.2 1.6 5.2 1.7 9.6 5.1 12.6 9.8 1.3 1.8 2.2 2.5 2.9 1.8 2.1-2.1-3.1-8.4-10.7-12.9-2.5-1.5-5.2-1.6-6-.3zM553 280.8c0 1.8 1.4 2.2 17.9 5.2 8.8 1.7 19.5 4.1 23.7 5.4 7.4 2.4 9.4 2.5 9.4.6 0-1.6-16.2-6.1-33.5-9.1-6-1.1-12.5-2.3-14.2-2.6-2.1-.3-3.3-.2-3.3.5zM1565 285.7c0 3.9 10.6 20.3 13.2 20.3 1.6 0 .8-2-2.6-6.4-1.9-2.5-4.6-7-6-10.1-2.6-5.4-4.6-7.1-4.6-3.8z"/>
  <path d="M444.4 358c-7.2 3.6-12.2 7.5-11.1 8.6.5.5 2.5-.2 4.5-1.4 2-1.3 6.3-3.5 9.5-5 3.1-1.5 5.7-3.2 5.7-3.9 0-2-2.2-1.6-8.6 1.7zM505 358.3c0 2 5.3 9.7 9.3 13.6 5.2 4.9 6.7 2.9 1.8-2.4-2.1-2.3-5.1-6.1-6.6-8.4-2.8-4.1-4.5-5.2-4.5-2.8zM246.5 425.7c-2 11-4.2 17.8-10.9 34.2-3.3 7.9-4.4 11.7-3.7 12.4 1.1 1.1 3.4-3.3 10.1-20.3 4.4-11 5.6-15.2 7.6-26.3 1.7-10 1.7-9.7 0-9.7-.9 0-1.9 3-3.1 9.7zM839.6 444.7c-1.1 1.5-5.8 6.9-10.4 12-11.1 12.2-24.2 28.5-24.2 30 0 2.8 2.2.9 9.3-8 4.1-5 12-14.2 17.5-20.4 10.4-11.5 12.6-14.6 11.5-15.7-1.1-1-1.7-.7-3.7 2.1zM1341.6 469.8c-.3.5 2.8 5.7 6.9 11.6 4 5.9 8.2 12.8 9.2 15.2 1 2.4 2.4 4.4 3.1 4.4 3.1 0-.1-6.9-9.5-20.8-7.5-10.9-8.6-12.1-9.7-10.4zM269.4 477.4c-6.1 2.9-19 10.1-28.7 16-9.8 5.8-18.1 10.6-18.5 10.6-.4 0-1.8-1.6-3.2-3.6-4.9-7.2-10-8.3-10-2.1 0 1.9-.3 6.2-.6 9.5l-.7 6.2-8.6 6.4c-23.9 17.7-33.5 31.2-28.7 40.4 1.4 2.6 2.8 3.5 9.4 5.5 4.2 1.4 11.5 2.7 16.2 3.1 4.6.4 8.6.9 8.8 1.1.3.2-.1 3.9-.7 8.2-1 6.9-1.8 8.7-7.6 17.6-6.5 9.9-7.9 13.7-5 13.7.8 0 1.5-.6 1.5-1.3 0-1.7 7.1-13 7.7-12.3.3.3-.5 7.3-1.7 15.6-1.7 11-2 15.4-1.2 16.2 1.6 1.6 1.7 1 4.7-19.7 3-19.9 3.5-21.7 9.4-30.4l4.1-6.1 18.8.7c20.8.7 23.2.2 23.2-4.5 0-1.5-3.6-9.3-8-17.5l-7.9-14.7 15.8-24.3c8.7-13.3 17.9-27.2 20.5-30.8 7.5-10.8 6.7-11.1-9-3.5zm5.9 2.3c-2.1 3.2-20 30.5-28.9 44.1l-6.1 9.4-5.3-8.8c-3-4.9-6.6-10.8-8.2-13l-2.8-4.2 6.3-4c14.2-9 44.4-26 46.5-26.2.2 0-.4 1.2-1.5 2.7zm-59 21.7c1.5 1.9 2.7 4 2.7 4.5 0 1.1-7.1 6.3-7.7 5.7-.6-.6.9-13.6 1.6-13.6.3 0 1.8 1.6 3.4 3.4zm7.3 10.3c8.5 13 14.4 23.9 13.7 25.4-.4.9-5.5 8.2-11.3 16.2-9.9 14-10.6 14.7-13.9 14.7h-3.4l.7-22.3c.8-29.3.8-29.1 6.5-33.3 2.5-1.8 4.9-3.4 5.2-3.4.4 0 1.5 1.2 2.5 2.7zM207 526.5c-.5 4.4-.9 15.3-.9 24.2-.1 18.8 1.5 17-13 15.3-21.6-2.5-25.7-8.2-15.7-21.7 2.3-3.2 6.9-8.1 10.2-10.9 6.6-5.7 19.6-15.6 20-15.2.1.2-.2 3.9-.6 8.3zm43.2 30.8c2.7 5.4 4.7 10.4 4.4 11.2-.4 1.2-2.9 1.5-12.8 1.4-6.8-.1-14.7-.4-17.6-.7l-5.4-.7L227 557c4.5-6.3 9.4-13 10.7-14.8l2.5-3.4 2.5 4.4c1.4 2.3 4.7 8.7 7.5 14.1zM210.4 575c-1.5 2.2-2.8 3.9-3 3.7-.2-.2-.1-2 .3-4 .5-3.1 1-3.7 2.9-3.7h2.4l-2.6 4zM155.5 475.9c-.9 1.5.5 1.9 7.5 2.1 8.5.3 8.9.2 6.6-1.5-2.2-1.7-13.1-2.1-14.1-.6zM727 492.3c0 .7.5 1.8 1 2.3.6.6 1.5 3.7 2 7 1.2 7.4 2.8 11.4 4.6 11.4 1.7 0 1.7.1 0-4.6-.7-2.2-1.6-6.3-2-9.3-.4-3.3-1.4-6-2.4-6.8-2.2-1.6-3.2-1.6-3.2 0zM1447.3 500.5c-9.2 8.5-19.3 20.3-19.3 22.4 0 2.6 2.8.6 7-5.1 2.5-3.3 8.7-9.9 13.8-14.6 8.2-7.7 10.9-11.2 8.4-11.2-.4 0-4.9 3.8-9.9 8.5zM847.5 499.1c-10.9 4.8-42.8 18-44.8 18.6-1.2.4-3.5-1.1-7.1-4.5-3-2.8-6.5-5.4-7.9-5.7-5.4-1.4-5.9-.7-8.7 11l-2.5 11-10.3 5.5c-12 6.4-17.9 11-19.7 15.4-2.4 5.7-.2 7.2 14.7 10.2 8 1.6 8.7 1.9 8.3 3.8-.3 1.2-1.8 8.4-3.5 16-3.1 14.6-3 14.4-11.8 23.8-6.3 6.6-4.5 8.5 2 2.1l5.1-4.8-.7 3.5c-1.6 7.9-1.9 14-.7 14 1.4 0 1.4.1 3.7-12.5 2-11 1.2-9.8 18.5-28.4l7.9-8.4 15.7 6.6c21.3 8.8 29.8 11.1 30.9 8.3.7-1.8-4.5-14.6-11.9-29.3l-6.1-12.1 16.1-15.9c20.4-20.1 28.2-31.4 21.6-31.3-1 .1-4.9 1.4-8.8 3.1zm6.5 1.5c0 .3-1.4 2.6-3.2 5.2-3.3 4.9-32.8 34.4-33.9 34-.9-.4-13.2-18.9-12.8-19.2.2-.2 6.7-2.9 14.4-6.1 7.7-3.1 18.5-7.7 24-10 10.3-4.5 11.5-4.9 11.5-3.9zm-65.2 10.8c1.5.8 4.2 3 6 4.8l3.2 3.4-9 4.1-9 4.1.6-2.6c.3-1.5 1-4.3 1.4-6.2.4-1.9 1.1-4.7 1.4-6.3.7-3.1 1.6-3.3 5.4-1.3zm13.3 12.8c3.6 4.3 12.1 17.7 11.7 18.5-.7 1.7-24.1 23.3-25.1 23.3-.7-.1-4.3-1.3-8.2-2.8-6.9-2.8-7-2.8-6.7-6.2.5-6 4.2-22.4 5.5-24.3.9-1.3 17.8-10.1 20.5-10.6.2-.1 1.2.9 2.3 2.1zM775 534.3c0 .2-.9 4.6-2 9.7s-2 10.4-2 11.6c0 1.3-.4 2.5-.9 2.8-.5.3-5.3-.3-10.6-1.4-5.4-1.1-9.9-2-10.1-2-.2 0-.4-1-.4-2.2 0-3 6.3-8.5 16.1-14 7.7-4.4 9.9-5.4 9.9-4.5zm46.7 21.5c4.3 8.1 11.3 24 11.3 25.7 0 2.2-15-2.8-33.9-11.2l-6.3-2.9 11.2-10.7c6.1-5.9 11.4-10.7 11.8-10.7.4 0 3 4.4 5.9 9.8zm-41.5 10.4c3.2 1.3 5.7 2.6 5.6 3-.4 1.1-17.2 19.6-17.9 19.7-.4.1.2-3.4 1.1-7.7 1-4.2 2.1-9.8 2.5-12.5.4-2.6 1.2-4.7 1.8-4.7.6 0 3.7 1 6.9 2.2zM1309.2 517.2c-1.9 1.9-1.6 2.4 5.1 7.1 7.5 5.4 24.7 21.4 24.7 23.1 0 .6-3.3 4.4-7.3 8.4-7 7-7.7 7.4-20.2 12.1-7.2 2.6-15 5.8-17.5 7-10.4 5.2-21 11.7-21 12.8 0 1.9 1.6 1.6 6.1-1.3 9.5-5.9 34.4-17.2 35.6-16.1.2.3-3.9 3.7-9.2 7.7-8.8 6.7-11.5 10-8.1 10 .8 0 1.6-.4 1.8-.8.2-.4 6.2-5.3 13.4-10.9 12.6-9.8 13.5-10.3 23.6-13.2 5.8-1.7 11.2-3.1 11.8-3.1 1.6 0 1.9.4 13.6 17.8 10.2 15.1 13 18.1 15 15.9 1.1-1.1 8.3-28.8 10-38 .3-2 .9-3.9 1.3-4.1 1.4-.9 30.1-2.7 45.5-2.9 11-.1 16.1-.6 16.3-1.4.6-1.6-9.4-4.7-32.7-9.8-30.4-6.8-27.8-5.8-28.5-10.9-1.4-9.3-8-11.2-17.2-5.1l-5.7 3.8-15.5-3.7c-24.3-5.6-38.2-7.1-40.9-4.4zm21.4 3.3c11 1.9 29.6 6.4 30.7 7.4.4.4-3.7 4.6-9.2 9.4l-9.9 8.7-3.9-4.4c-3.7-4.3-16.8-15.9-22.8-20.3l-3-2.2 4.6-.1c2.6 0 8.6.7 13.5 1.5zm53.3 1.9c.5.6 1.2 2.6 1.6 4.4l.7 3.3-3.7-.7c-2.1-.4-5.8-1.2-8.4-1.9l-4.6-1.2 4.8-3c4.7-3.1 7.6-3.3 9.6-.9zm-7.1 8.8l9.2 2.2v3.2c0 1.7-.3 5.2-.6 7.7l-.6 4.5-7.7 1.1c-4.2.6-11.9 2.2-17.1 3.6l-9.5 2.4-3.2-3.7c-2.5-2.8-2.9-4-2-4.8 14.4-12.9 20.8-18.4 21.4-18.4.4 0 5 1 10.1 2.2zm35.9 8.3c11.4 2.6 21.2 5.1 21.7 5.6.6.5-3.2.9-9.6.9-5.9 0-16.4.5-23.3 1.1-7 .6-12.8.9-13.1.7-.2-.2-.1-3.5.3-7.2.4-4.8 1-6.6 1.9-6.2.7.3 10.6 2.6 22.1 5.1zm-67.9 14.4l2.2 3-5.3 1.5c-11.9 3.4-11.8 3.4-5.9-2.3 3-2.8 5.7-5.1 6.1-5.1.4 0 1.7 1.3 2.9 2.9zm39.2-.6c0 1.9-8.8 36.8-9.4 37.4-.3.3-2.6-2.8-5.2-6.8-2.6-4.1-7.3-11.1-10.5-15.7-3.3-4.5-5.9-8.6-5.9-9.1 0-1.2 21.2-6.3 29.3-7 .9 0 1.7.5 1.7 1.2zM292.7 532.7c-2.1 2 1.2 2.3 21 2.1 16.2-.2 21.7-.6 22.1-1.6.3-.9-4.4-1.2-21-1.2-11.8 0-21.8.3-22.1.7zM891.2 541.2c.2.6 3.6 2.5 7.4 4.2 3.9 1.7 13.2 6.4 20.7 10.3 14.1 7.6 15.7 8.2 15.7 6 0-1.4-39.6-21.8-42.3-21.7-1 0-1.7.5-1.5 1.2zM1247.5 553c-.4.6-.5 1.4-.2 1.6 2.2 2.2 35.5 3.1 35 .9-.2-.6-6.4-1.3-14.5-1.6-7.9-.4-15.5-1-16.9-1.3-1.7-.5-3-.3-3.4.4zM711 583.9c-14.9 6.3-25.5 11.5-26.4 13-1.6 2.5 2 1.9 7.7-1.2 3.4-1.9 12.6-6 20.5-9.2 8.5-3.5 14.2-6.3 14.2-7.1 0-2.1-1.3-1.7-16 4.5zM1307.6 600.4c-5.2 18.1-5.8 21.7-3.9 22.3.7.3 1.5-.8 1.8-2.4.3-1.5 1.8-7.3 3.3-12.8 3.1-11.4 3.1-11.7 1.5-12.2-.6-.2-1.8 1.9-2.7 5.1zM1428.6 604.7c-.7.7 13.2 15.3 14.6 15.3 2.2 0 .1-3.2-6-9.3-6.9-6.9-7.4-7.2-8.6-6zM815 611.6c0 3.9 4 20.3 5.1 21 2.1 1.3 2.1-.9.1-9.4-1.2-4.8-2.2-10-2.2-11.5 0-1.7-.5-2.7-1.5-2.7s-1.5 1-1.5 2.6zM132.3 614.7c-2.8 2.1-5.9 4.3-6.9 4.9-1 .6-1.4 1.5-1 2.2.8 1.4 5.1-.9 11.9-6.2 7.1-5.7 3.6-6.5-4-.9zM248 629c0 .5 1.8 4.8 3.9 9.5 2.5 5.4 4.5 8.5 5.5 8.5.9 0 1.6-.2 1.6-.5 0-1.6-9.2-18.5-10-18.5-.6 0-1 .4-1 1z"/>
</svg>
