<svg xmlns="http://www.w3.org/2000/svg" version="1" viewBox="0 0 292 541">
  <path d="M135.5 10.8C104.1 27 71 46.6 46.7 63.4c-7.6 5.2-15.8 10.4-18.3 11.5-5.6 2.5-26.1 14.8-27 16.2-.9 1.5 1.1 3.2 3.8 3.1 3.6 0 24.2-12 45.8-26.7 10.7-7.2 25.8-17 33.5-21.7C107.2 32.1 147 10.2 147 11.4c0 .3-7.3 6.5-16.2 13.8C100.7 49.7 66 82.5 66 86.4c0 .9 1.2 2.1 2.7 2.7 3.9 1.5 8.5-.3 38.1-14.5 14.2-6.8 30.4-14.2 36.2-16.4 14.2-5.5 37.2-13.3 38.1-13 .4.2-5.3 5.2-12.7 11.1-22.9 18.5-53.9 47.1-60.5 56.1-3.3 4.5-2.7 7 2 7.9 4.4.9 10.8-.5 42.3-9.2 31.4-8.7 67.1-17.4 69.4-16.9 2 .4-13.9 8.3-27.6 13.8-19.9 8-58.8 21.9-66.8 24-9.2 2.3-32.1 10.1-40 13.6C79.5 149 67 157 67 158.5c0 4.1 9.1 1.9 30.5-7.5 17.2-7.5 40.2-16.4 46-17.9 2.8-.7 12.3-2.5 21.3-4l16.2-2.8v68.1c0 102.2 2 147.1 7.7 171.6.5 2.1-.6 1.4-6-3.8-6.4-6.1-12.2-9.4-23.2-13.2l-5-1.7-2.2-16.4c-3.4-25.3-7.2-60.9-8.3-76.9-.5-8-1-36.4-1-63.1 0-47.8 0-48.7-2-49.2-1.1-.3-2.2-.2-2.5.3-1.7 2.8-2.7 34.6-2.2 72.8.5 45.3 1 52.4 7.7 105.3 1.7 13 3 24.1 3 24.8 0 .7-1.9 1.1-5 1.1-8.7 0-15.3 3.9-19 11.1-3 5.7-4.3 19.4-3.8 38.4.5 15.2.8 17.9 3.3 25.2 1.5 4.6 4.6 11.5 6.9 15.5 3.6 6.4 4.5 7.3 7.3 7.6 4.5.4 9.2-4.1 14.2-13.8 8.4-16.1 10.1-33.1 6.2-63-1.1-8-1.8-14.6-1.6-14.8.2-.2 3.8 1.1 8.2 2.9 6.7 2.7 8.9 4.4 15.7 11.2 8.9 9.1 14 16.5 16.5 24.1 1.3 3.6 2.6 5.5 4.5 6.5 4.7 2.2 5.5.1 2.7-7.2-6.5-17-8-23-10.6-43.2-3-23.7-3.6-43.3-4.2-131.6l-.5-89.6 8.8-1.2c4.9-.7 13.4-1.5 19.1-1.8 10.9-.6 13.9-1.5 11.3-3.4-2.3-1.6-27.2-.2-44 2.5-8 1.3-14.6 2.2-14.8 2.1-.1-.1 3.2-1.5 7.5-3 34.4-12.2 58.3-24.1 58.3-29.1 0-5.9-21.8-1.9-87.5 16.1-31.6 8.6-32.5 8.8-32.5 7.7 0-1.1 25.8-26.4 37.5-36.8 5-4.3 14.9-12.6 22-18.3 13.7-10.9 21.5-18 21.5-19.3 0-.5-1.2-1.3-2.7-1.9-7.2-2.7-50.8 12.7-92.2 32.8-11.8 5.7-21.6 10.2-21.8 10-.5-.6 26.5-26.6 37.7-36.2 5.8-5 16.1-13.6 23-19.2 15.7-12.7 24.5-21.6 23.7-23.7-1.5-3.7-7.6-1.9-27.2 8.2zM148 350.7c0 .5.7 5.3 1.5 10.8 2.5 16.4 3 41.6 1.1 50-1.9 7.9-8.4 22.1-11.5 24.9-1.9 1.8-2 1.7-4.9-4.1-6.1-12-7.4-18.3-8-37.1-.4-17.7.8-31.3 3.3-36.2 1.9-3.5 5.7-7 9.1-8 3.7-1.1 9.4-1.2 9.4-.3z"/>
  <path d="M226.6 132.2c-1.8 6.9.4 22.3 10 68.3 5.1 24.7 9.1 38.1 23.4 79.2 14.1 40.4 20.7 64.1 23.1 82.8 1.5 12.3.6 45.2-1.6 59.4-2.4 15.6-7.8 35.6-11.9 44.5-8 17.4-23.1 36-38.8 47.7-9 6.7-27.8 16.2-36.3 18.4-9.4 2.4-25.9 3.8-38.1 3.2-34.5-1.8-62.4-14.4-87-39.2-14.8-15-17.7-22.4-17.8-46-.1-21.9 5.1-42.4 21-82.4 24.9-62.4 33.4-88.4 37-112.4 3.2-21.9 2.8-73-.7-93.6-1.4-8.2-2.4-10.1-5.1-10.1-2 0-2.1.3-1.4 8.7 2.1 27 2.5 35.4 2.6 50.9.1 49.1-4.5 67.3-38 152-17.6 44.4-22.4 62.8-22.4 85.9.1 26 3.4 33.7 22.5 52 26.3 25.3 59.7 38.4 97.9 38.5 23.3 0 36.1-2.9 54.3-12.2 13-6.7 23.3-14.4 33.4-25.1 15.7-16.6 25.3-34.2 30.8-56.1 5-19.7 6.6-31.9 7.2-54.6.9-34.2-1.8-46.9-24.2-113.5-17.4-51.5-17.5-51.9-22.6-76-6.8-32.3-10.9-56.5-10.9-64.1 0-5.6-.3-7.3-1.6-7.8-2.8-1.1-4.2-.6-4.8 1.6z"/>
</svg>
