<svg xmlns="http://www.w3.org/2000/svg" version="1" viewBox="0 0 520 102">
  <path d="M366.5 1.9c-.5.9 1.3 23.9 2 25.1.2.3.9 8 1.5 17 1.5 22.1 5.4 40 8.1 37.3.6-.6.1-4.1-1.1-8.9-1.2-4.3-2.5-13.7-3.1-20.9-.5-7.2-1.7-18.2-2.5-24.5-.7-6.3-1.4-13.4-1.4-15.6 0-7.8-1.7-12.4-3.5-9.5zM483.6 2.1C473.9 4.4 469 6.2 469 7.6c0 1.8.2 1.8 8.5-.7 9-2.6 25.8-3.7 28.1-1.9 2.3 2 1.1 6.7-4.6 18.5-6.1 12.5-7 16.3-7 30 0 17.1 3 25.8 11.8 34.7 2.5 2.7 4.3 4.8 3.9 4.8-1.7 0-26-11-31.3-14.1-7.7-4.5-19.3-16.1-22.4-22.4-2.9-6-3.9-16.9-1.9-21.8 1.7-4.3 8.5-12.3 12.6-14.8 1.8-1.1 3.3-2.7 3.3-3.5 0-3-3.3-1.1-10.3 5.8-6.1 6.1-7.6 8.3-9.1 13.1-5.1 16.5 6.7 35.4 30.5 49 6.6 3.8 29.7 12.8 34.2 13.5 4.4.6 5.2-1.6 1.4-4.1-6-3.9-12.9-11.9-15.9-18.4-2.7-5.9-3.1-8.2-3.5-17.8-.7-14.3.5-20.1 6.7-32.6 3.1-6.4 5.3-12.4 5.6-15.5.6-4.6.4-5.3-1.7-6.8-2.6-1.8-17.3-2.1-24.3-.5zM243 5.3c-11 3.7-23.7 14.1-30.6 25C209 35.5 207 44.1 207 53c0 6.4.4 8.2 2.9 12.6 5.8 10 17.2 19.6 26.5 22 7.1 1.9 27.8 1.8 34.3-.1 10.9-3.3 20.6-11.1 23.4-19.1.9-2.5 1.4-8.2 1.4-15.9 0-11.4-.2-12.4-3.3-19.8-6.9-15.9-16.5-23.3-32.6-25.3-3.1-.3-4.4-.9-3.6-1.4 2-1.3.2-3-3.3-3-1.8 0-6.1 1.1-9.7 2.3zm8.4 3.1c-.6 1.5 3.5 2.6 10 2.6 6 0 15.4 4.8 20.2 10.3 2.3 2.6 5.6 8.1 7.5 12.4 3.1 7.3 3.3 8.5 3.4 18.8 0 17.5-3.3 23.2-17.5 29.9-5.9 2.8-7.6 3.1-18.5 3.4-7.2.3-14.1-.1-17.5-.8-9.5-2.1-22.1-12.5-27.1-22.2-3.2-6.3-2.1-20.5 2.3-29.3 2.7-5.2 11.9-14.8 18.8-19.5 8.3-5.6 19.8-9.1 18.4-5.6zM358.9 8.9c-8.7 7.2-15.4 24.3-14.7 37.5.5 10.1 3.5 15.6 11.8 21.8 7 5.2 8 5.6 8 3.4 0-.8-2.8-3.6-6.1-6.2-10.2-7.8-13-17-9.4-30.9 2.5-9.4 6-16.1 11.4-21.8 2.8-3 5.1-5.7 5.1-6 0-1.5-2.8-.5-6.1 2.2zM1.4 9.2c-.4.7 0 1.6 1.1 2.2C9.9 15.7 20.6 25 23.8 29.8c3.5 5.3 3.7 6 4 15.1.5 14.6-1.3 18.9-15.8 37.5-8 10.3-9.4 14.1-6 16.8 4.9 4 22.5 1.2 40.2-6.3 6.8-2.8 13.4-6 14.8-7.1 13.1-10.1 7.2-31.2-12.7-45.9-2.9-2.2-5.7-3.9-6.3-3.9-2.7 0-.4 3 5.4 7.3 8 5.9 11.1 9.5 14.8 17.2 4.6 9.8 3.3 18.5-3.5 23-4.4 2.9-25.4 11.3-30.8 12.4-10.2 2-17.3 2.3-19.2.9-1.7-1.2-1.6-1.6 1.4-6.3 1.7-2.7 5.9-8.3 9.2-12.3 13.8-16.9 16.5-37.5 6.8-51C20.3 19.3 3 6.6 1.4 9.2zM126.6 8.9c-.4.5 2.2 2.5 5.7 4.5 10.4 5.8 18.1 12 21.6 17.4 2.7 4.2 3.3 6.4 3.8 12.5 1.3 16.5-6.7 29.9-26.8 44.8-3.2 2.4-5.8 5.2-5.9 6.1 0 1 .2 1.8.5 1.8s4.1-2.7 8.4-6c10.8-8.2 19.3-17.6 23.3-25.7 3.1-6.4 3.3-7.3 3.3-17.8 0-10.2-.2-11.3-2.7-15.6-3.6-6.1-11.4-13-20.8-18.5-7.6-4.5-9.4-5.1-10.4-3.5zM122.6 13.9c-.4.5-1.1 6.9-1.6 14.2-.6 7.2-1.5 16.2-2 19.8-1.3 9.1-1.3 29.8.1 30.6 2 1.3 2.4-.7 2.2-10.8-.1-5.6.4-15.4 1.2-21.7 2.1-17.5 2.8-31.7 1.6-32.4-.5-.4-1.2-.2-1.5.3z"/>
</svg>
