<svg xmlns="http://www.w3.org/2000/svg" version="1" viewBox="0 0 1790 174">
  <path d="M1181 10.2c-13 14-35.1 34-36.9 33.3-.9-.4-3.3 1.4-6.6 4.8-8.2 8.6-27.3 17.5-48 22.3-6.4 1.5-11.8 1.9-26.5 1.8-16.9 0-19.8-.3-33.6-3.2-13.7-2.9-41.7-10.5-48.8-13.1-1.5-.6-3.5-2-4.5-3.1-1.9-2.3-12.7-6-17.5-6-6.2 0-43.9-17.5-61.6-28.7-5.2-3.3-10.9-6.3-12.7-6.6-3.6-.7-5.5.7-19.7 14.3-19.8 19.1-37.8 28.3-63.1 32.1-13 2-50.3 1.7-68-.5-25.6-3.2-63.2-11.6-87.5-19.7-6.3-2-23.2-8.5-37.5-14.2C572.1 9.1 565.8 7 557.3 7c-6.8 0-7.2.2-14.1 5-4 2.8-11 8.3-15.7 12.3-9 7.8-27.5 19-30.3 18.5-1-.2 2.7-2.6 8.6-5.6 5.8-3 10.2-5.9 10.2-6.7 0-1.9-.3-1.9-9.8.1-10 2-21.2 7-21.2 9.5 0 1 .7 2.2 1.6 2.7 1.3.7 1.1 1.3-1.5 3.4-2.3 2-4.8 2.8-11.8 3.7-4.8.6-10.5 1.4-12.6 1.6-6.9.9-55 .6-67.7-.5-34.6-2.8-66.3-10.6-91-22.1-4.7-2.2-9.7-4.1-11.1-4.1-1.4-.1-5.5 1.4-9 3.1-33.5 17-81.7 31.1-115.9 33.9-25.5 2.1-66.1-3.4-73-9.8-3.1-2.9-11-7-13.4-7-.8 0-1.9.7-2.4 1.6-.7 1.3-2.6.8-13.4-4-20.8-9-42-21-54.2-30.6C3.1 6.9 1 6 1 8.3c0 1.5 13.4 11.6 23 17.5 11.7 7.1 27.3 15 41.4 21.1 10.5 4.5 15 7 18 10.1l4.1 4h-5.8c-5.4 0-5.7.1-5.7 2.4 0 1.4.5 2.8 1 3.1 1.9 1.2 1 2.4-3.6 4.6-9.1 4.6-16.5 15.5-18.4 27-2.3 14.7-.8 22.7 5.1 27.1 7.7 5.8 23.8 8.7 28.7 5.2 2-1.4 2.2-2.3 2.2-11.3 0-8.7.7-13.3 4.7-30.9.7-2.8-1.2-2.9-2.7-.2-2.2 4.2-5 20.6-5 29.6 0 5.7-.4 9.5-1.1 10-.6.3-3.9.7-7.3.7-7 0-15.5-3.4-19.5-7.7-6.2-6.6-2.8-28.7 6-39.6l2-2.5-.6 4.3c-.6 3.8-.5 4.4 1.4 4.9 1.8.5 2.1 1.3 2.1 6.3 0 3.9.5 6.2 1.5 7 2.3 1.9 7.6-4.5 12.8-15.2C87.6 81 90 77 90.6 77c.6 0 2.8.7 4.7 1.5 3.8 1.6 6.7 1.1 6.7-1 0-1.2-7.2-8.1-12.1-11.7l-2.4-1.7 2.2-.1c1.3 0 4.5 1.4 7.2 3 6.3 3.9 22.3 11.4 27.9 13.1 4.3 1.2 6.8.5 5.4-1.7-.9-1.3-9.7-6.6-24.2-14.4-6.3-3.4-10.1-5.8-8.5-5.5 1.7.4 6.8 1.5 11.5 2.5 21 4.6 50.7 5.7 71 2.6 28.7-4.3 68.5-16.4 96.7-29.6 7.1-3.3 13.6-6 14.4-6 .9 0 4 1.2 7 2.6 17.6 8.6 43.5 16.5 65.4 20 6.6 1.1 11.5 2.4 12.2 3.3.7.8 4 2.6 7.4 4.1 6.3 2.8 6.4 3.2 1.5 4.4-3.9 1-7.6 3.5-7.6 5.4 0 1-.7.7-2.6-1.1-3.2-3.2-6.2-4.3-7.8-2.7-.8.9-.5 1.6 1.3 3.1 1.3 1.1 2.2 2.1 2 2.2-.2.1-1.3.7-2.4 1.3-3.1 1.7-3.2 4.4-.2 4.4 6 0 5.4 1.2-2.4 5.3-9.3 4.8-10.1 7-2.8 7.5l4.5.3-.6 4.7c-.6 5-1.6 7.2-6 13.7-4 6-7 15.4-7 22 0 5.3.3 6 3.4 9 4.1 3.8 13.8 6.5 23.8 6.5 6.2 0 6.8-.2 9.2-3.1 3.3-3.8 3.3-6.3 0-19-2-7.8-2.5-11.7-2.1-16.6.4-5.6.3-6.4-1.2-6.1-1.3.3-1.6 1.8-1.5 9.8 0 6 .7 11.4 1.7 14.5 4.5 13.7 3 17.5-6.9 17.5-6.8 0-18.8-3.4-21.5-6.1-4.2-4.2-1.4-16.9 6.3-29 6.4-9.9 7.5-20.4 2.1-21.1-2.2-.3-1.8-.7 2.8-2.9l5.4-2.6-.6 7.6c-.4 4.2-1.6 10.3-2.8 13.5-2.7 7.6-3 22.3-.5 23.3 2.2.8 3-.9 5.3-10.7 2.6-11.4 3.6-20.7 2.3-22.3-1.4-1.7-1.8-12.5-.5-13.8 1.1-1.1 6.1-.5 24.1 2.7 6.9 1.2 9.7 1.3 10.5.5 2-2-.8-3.2-10.7-4.6-10.8-1.5-18.8-3.9-20.6-6.1-1-1.1-.6-1.7 2.6-2.9 10.8-4.2 11.9-6.5 4.8-9.5-2.6-1.1-4.4-2.3-4.2-2.6.3-.3 11.1.1 24 .7 23.6 1.3 52.2.4 67.1-2.1 6.7-1.1 9.1-.5 8.1 1.9-1.4 3.2-1.6 9.2-.4 12.2 1.5 3.6 5.1 6.3 10.7 7.9 5 1.5 5.5 3.3 1.3 5.5-3.7 1.9-4.1 4.9-.6 4.3l2.5-.5-2.1 4.1c-1.2 2.3-3.9 7-6.1 10.4-6.4 10.1-8.6 16.6-8.7 24.8 0 16.7 12.5 27.9 32.5 29.1 10.6.6 12.4-.5 10.6-6.8-.7-2.4-2.1-8.2-3.2-12.9-2.3-10.7-2.6-31.4-.5-36.5 1.4-3.2 1.2-4.5-.5-4.5-3.6 0-5.6 20.7-3.4 35 .9 5.2 2.3 12.1 3.2 15.3.9 3.1 1.4 6 1.1 6.3-.3.3-3.8.5-7.7.5-5.6 0-8.3-.5-12.9-2.6-18.4-8.4-21.4-25.4-8-45.7 2-2.9 5-8.1 6.7-11.5 1.8-3.4 3.9-6.4 4.7-6.7.8-.3-.3 2.7-2.8 7.7-4 7.8-4.2 8.7-4.2 17.2-.1 7.4.2 9 1.4 9 1 0 1.6-1.2 1.8-3.5.4-5.8 2.4-15.3 3.9-18.3.8-1.5 1.2-3.1.9-3.5-.3-.5.4-2.1 1.5-3.8 1-1.6 1.9-3.7 1.9-4.6 0-1.7 3-2.8 16.9-6.4 9.6-2.5 10.8-6 1.7-5l-5.1.6 4.7-2.5c6-3.2 6.5-4.1 3.7-7.2-1.8-1.9-2-2.7-1.1-3 .7-.3 2.5-1.6 4-2.8 2.5-2.2 2.6-2.5 1.1-4-1-1-6.1-2.5-12.5-3.7-14.4-2.7-13.9-2.5-12.4-4.3.7-.9 1-1.8.7-2.2-.4-.3 2.4-2.4 6-4.5 3.7-2.2 10.6-7.2 15.3-11.2 4.7-4 11.5-9.4 15.1-12 6.1-4.2 7.2-4.6 12.4-4.6 6.5 0 16 3 38.5 12.2 45.4 18.6 69.6 26.2 107 33.8 31.2 6.4 73.3 8.8 96.3 5.6 29.2-4.1 46.7-13 70.4-35.8 7.8-7.5 11.9-10.8 13.6-10.8 1.3 0 6.3 2.5 11.2 5.6 13 8.1 21.2 12.5 38 19.9 8.3 3.7 15.1 6.8 15.3 7 .2.2-.4 1.7-1.2 3.4-.9 1.6-1.6 4.1-1.6 5.5 0 3.4 3.4 12.3 5.7 14.8 1.7 2 1.7 2-1.7 1.6-2.6-.2-3.5.1-3.8 1.4-.2 1.2.3 1.8 1.6 1.8 3 0 3.2 1 1.1 5.1-1.2 2.4-5 6.3-9.7 9.9-8 6.4-14.7 14.2-18.3 21.7-1.8 3.8-2.1 5.7-1.7 14.7.3 9.3.6 10.7 3.1 14.5 1.5 2.3 4.9 5.5 7.4 7.1 4.2 2.7 5.1 2.9 11.2 2.3 11.8-1 17.5-7 21.2-22.3 1-4.5 1.9-9.1 1.9-10.3 0-1.2 1.4-6 3-10.7 1.7-4.7 3.7-10.6 4.6-13.3.8-2.6 1.6-4.7 1.7-4.7.1 0 1.7.4 3.5 1 1.9.5 4.7.7 6.3.3 4.3-.8 3.7-3.6-1.1-5.8-2.2-1-3.9-1.9-3.8-2.1.2-.1 6.4 1.1 13.8 2.7 14.3 3 28.3 3.8 29.6 1.7 1.1-1.7-5-6.5-14-10.9-7.8-3.8-13.1-5-12.4-2.8.2.6 3.9 2.6 8.3 4.5s9.1 4.4 10.5 5.5l2.5 2.1-7-.6c-9.8-.7-48.5-9.3-50.6-11.2-1.3-1.1-1.6-2.5-1.2-5.5.5-3.2.3-3.9-1.1-3.9-1 0-1.6.8-1.6 2.2l-.1 2.3-1.8-2.2c-1.1-1.3-2.4-4.5-3.1-7.3-1-4.3-1-5.4.4-7.5.9-1.4 2.1-2.5 2.7-2.5.6 0 11 3.3 23.2 7.4 23.3 7.8 48.5 14.5 64.9 17.1 27.4 4.4 57.6.2 79.8-11 8.2-4.1 8.6-4.2 6.6-1.3-2 2.8-2.1 7.4-.2 8.1.7.3 3.3.3 5.7 0 3.9-.6 4.2-.4 3.1.9-1.8 2.2.8 4.1 4.5 3.2 2.8-.7 14.3-6.3 17.4-8.6 1.6-1.1 5.3 1 12.9 7.2l2.5 2-2.8-1c-3.6-1.3-3.7-1.3-3.7.4 0 .8 2 2.4 4.5 3.6 6.5 3.1 12.5 9.5 16.5 17.3 3.9 7.7 9.9 13.9 16.3 16.8 6.3 2.8 18.8 2.6 24.7-.4 7.2-3.6 8.5-6.3 8.4-17 0-8.3-.4-9.9-3.3-16-4.3-9-12.2-16.8-19.9-19.8-4.6-1.8-8.8-2.3-21.7-2.9-16.5-.8-22.9-2-23.9-4.5-.4-1.1-2.2-1.5-6.6-1.5h-6l5.5-7.9c4.9-7 5.7-9.1 3.4-9.1-.7 0-10.3 12.5-12.6 16.5-1.7 3-.8 3.5 6.2 3.5 7.1 0 7.5.8 2.5 4.8-2.7 2.1-2.9 2.2-5.9.5-2.2-1.3-3.3-1.5-4.1-.7-.9.9-.4 1.6 1.9 3 3.8 2.2 3 3.4-5.2 7.5-5.7 2.9-9.1 3.4-4.8.7 2.4-1.4 2.8-3.6.8-4.4-.7-.2-3 .2-5 1.1-2 .8-5 1.5-6.7 1.5-2.9 0-3-.1-1.9-2.3 2.4-4.4 8.5-10.9 14.4-15.3 8.3-6.1 38.2-34.2 43-40.3 2.9-3.6 4.7-5 6.6-5.1 1.4 0 6.8 2.5 12 5.6 42.5 25.2 96.5 43.5 156.4 53 3.5.5 4.3.9 2.5 1.2-6.1.9-10 2.4-11 4.3-1.7 3 3 6.8 12.8 10.4 7.3 2.7 8.2 3.3 8.2 5.5 0 3.8-1.9 6.3-9.5 12.8-9.6 8.2-12 13-12 24.3 0 7.4.3 9 2.4 12 5.1 7.5 12.6 9.9 29.9 9.9 12.2 0 17-1.6 21.5-6.9 2.6-3.2 2.7-3.6 2.7-16 0-7.1.5-14.2 1.1-16 1.1-3 1.3-3.1 6.7-3.1 3.1 0 8.2-.7 11.4-1.6 4.7-1.4 5.9-2.1 6.5-4.2 1.6-6.6-7.7-15.1-27.2-24.7-11.4-5.6-12.6-6.4-9.5-6.5 9.4-.2 23.2-2 29.5-3.9 6.6-1.9 7.7-2 20.3-.8 12.4 1.2 15.7.8 13.5-1.4-.4-.4-5.2-1.1-10.6-1.5-5.3-.4-9.7-1-9.7-1.3 0-.3 2.9-2.5 6.3-4.8s9.4-7.3 13.2-11c10.2-9.9 22.4-19.3 25.1-19.3 3.1 0 8.8 2.3 28.5 11.5 47.5 22.3 87.3 33 131.7 35.7 26.7 1.5 42.7.2 70.2-5.7 26.1-5.7 31.2-7.5 50.8-17.3 8.6-4.4 17-8.3 18.6-8.8 1.6-.5 2.9-1.4 2.7-1.9-.5-2.4-7.7 0-22.2 7.4-19.4 10-25.2 12-48.7 17-26.8 5.8-31.3 6.3-54.7 6.3-24.1 0-36-1.1-56.6-5.2-31.6-6.3-55.7-14.3-88-29.3-23.3-10.8-28.2-12.7-32.2-12.7-4.1 0-12.6 6-24.1 17-10.2 9.7-17.6 15.5-24 18.7-4.7 2.4-5.5 2.5-15.5 1.9-10.1-.7-40.8.8-42 1.9-.3.3 0 1.5.7 2.5 1.1 1.8.9 2-1.3 2-12.1 0-51.2-7.2-75.7-14-35.3-9.7-70.3-24.2-96.8-40-14.4-8.6-15.1-8.5-26 3.2zM497.2 38.1c-2.9 1.6-6.1 2.9-7 2.7-2.5-.6 7.1-5.4 11.3-5.7.6 0-1.4 1.3-4.3 3zm15.7 12.5c18.7 3.5 18.2 3.3 13.8 5.5-3.6 1.9-3.7 1.9-11.2-.6-4.2-1.4-10.5-2.9-14.1-3.2-3.5-.3-6.7-1-7-1.5-.4-.6 2.5-2.4 4.5-2.7.2-.1 6.5 1 14 2.5zM84 50c.8.5 1.1 1 .5 1-.5 0-1.7-.5-2.5-1s-1-1-.5-1c.6 0 1.7.5 2.5 1zm425.3 7.2c4.8 1.1 8.7 2.3 8.7 2.6 0 .9-16 8.5-18 8.6-.8.1-1.6 1.1-1.8 2.4-.4 2.5-1.9 2.4-7.4-.4-5.8-3-7.6-9.8-3.7-14 1.8-2 2.8-2.2 7.7-1.7 3.2.3 9.6 1.4 14.5 2.5zM91 56.4c0 1.1-1.9 1.5-2.5.6-.3-.5.1-1 .9-1 .9 0 1.6.2 1.6.4zm1079.7.7c1.5.7 10.2 1.5 19.3 2 20.5.9 24.3 2.1 32 9.8 6.3 6.3 9.6 12.6 11.2 21 1.9 10.5-.5 16.6-7.9 19.7-4.4 1.9-15.2 1.8-19.9-.2-5.5-2.2-12.1-8.9-15.5-15.7-1.6-3.2-4.6-7.6-6.7-9.9l-3.7-4.1 4.2 2.2c5.4 2.7 10.6 2.7 14.4 0 2.6-1.8 3.4-1.9 5.8-.9 1.6.6 4.6 1 6.7.8 5.2-.4 5.6-2.9 1.3-7.4-4.1-4.3-17.7-11-19.2-9.5-1.3 1.3-1.5 1.2 6.8 5.4 3.9 1.9 8.1 4.7 9.4 6.1l2.4 2.6h-2.7c-1.5 0-3.7-1.1-5.2-2.5-2.8-2.8-4.4-3.2-4.4-1.1s-4.9 5.6-7.7 5.6c-1.3 0-3.8-.7-5.6-1.6-2.4-1.2-19.8-13.3-24.6-17.1-.6-.4 5-6.3 6-6.3.4 0 2 .5 3.6 1.1zm229.8 1.9c-3.3.4-8 .8-10.5.8-3.7 0-4-.1-2-.8 1.4-.4 6.1-.8 10.5-.8l8 .1-6 .7zm20.8-.3c-.7.2-1.9.2-2.5 0-.7-.3-.2-.5 1.2-.5s1.9.2 1.3.5zM525 63.5c1.6 1.9 2 1.6-7.1 5.7-4.9 2.3-9.1 3.5-11.8 3.5-5.5 0-4.5-.9 6.6-6.3 10-4.8 10.6-5 12.3-2.9zM82.2 65.2c-.9.9-1.5.9-2.4 0-.9-.9-.7-1.2 1.2-1.2s2.1.3 1.2 1.2zm1320 6.2c16 7.7 24.6 13.5 27.9 18.9 2.5 4.2 2.5 4.4-1.3 5.6-5.2 1.6-16.2 2.6-15.4 1.3 1.2-1.9-1.5-2.4-3.4-.7-1.7 1.6-2.9 1.6-12.2.7-10.3-1.1-16.8-2.7-16.8-4.2 0-1 13.3-2 28.7-2 11 0 13.3-.3 13.3-1.5 0-.8-1.3-1.6-3.2-1.9-17.7-2.9-22.5-3.8-30.5-5.6-5.1-1.2-9.3-2.5-9.3-3 0-1.2 2.7-3.1 5.6-3.9 3.7-1 4.3-3.1.9-3.1-3.2 0-8.1 2.4-8.8 4.5-.9 2.2-4 1.9-12-1.5-9.4-3.9-10.5-4.6-9.1-6 .8-.8 22.3-4.5 28.6-4.9 1-.1 8.6 3.2 17 7.3zM89 70.2c0 1.1-.8 1-3.1-.3-1.1-.5-1.7-1.4-1.4-1.9.6-1 4.5.9 4.5 2.2zm-3.2 3.6c1.5 1-1.5 8.5-7 17.3l-3.2 5.3-.9-4.1c-.6-3.1-.4-5 .8-7.2.8-1.7 1.5-3.5 1.5-4.1 0-1.8-2.7-1.1-4.3 1.2-1.4 2-1.6 2.1-1.6.5-.1-2.6 3.6-7.5 7.2-9.7 3-1.8 3.7-1.8 7.5.8zM375 72c0 .5-.2 1-.4 1-.3 0-.8-.5-1.1-1-.3-.6-.1-1 .4-1 .6 0 1.1.4 1.1 1zM93.9 73.4c1 1.2.8 1.3-.8.9-1.2-.3-2.1-.9-2.1-1.4 0-1.4 1.6-1.1 2.9.5zm866.8 8.3c2.2 1.6 5 3.6 6.3 4.5l2.4 1.8-2.1 6.2c-6 17.8-7.2 22.1-8.8 30.8-2.1 11.4-4.2 15.8-9.4 19.9-3.5 2.8-4.6 3.1-10.5 3.1-6.4 0-6.8-.2-11.1-4.1-5.5-5.1-6.9-9.5-6.3-20.6.4-7.9.6-8.5 5.3-15.3 2.6-3.8 5-6.9 5.1-6.7.2.2-.6 2.7-1.7 5.7-2.3 6.1-2.2 12.8.2 14.3 2.7 1.7 6.8-.1 11.7-5.1 4.7-4.7 7.2-8.9 11.2-19.2 1.2-3 2.8-6.2 3.6-7.1 1.6-1.8 1.9-4.9.4-4.9-1.7 0-5.9 7.2-8.7 14.9-2.2 6.1-3.8 8.7-8.4 13.3-3.2 3.2-6.2 5.8-6.8 5.8-1.8 0-1.3-8.5.8-13.4 1.1-2.4 6.1-9 11-14.6 5-5.5 9.1-10.5 9.1-11 0-1.8 2.6-1.1 6.7 1.7zm437.3 5.4c.8.1-3.4.7-9.5 1.4-6 .7-11.1 1.2-11.3 1-.1-.1.5-1.6 1.5-3.2l1.7-3 8 1.8c4.5 1 8.8 1.9 9.6 2zm-26.6 16.9c-.9 3-1.8 7.4-2.1 9.8-.5 4.1-.3 4.4 2.6 5.5 2 .7 3.1 1.8 3.1 3.1 0 2.9 2.9 5.6 6.1 5.6 3.9 0 7.2-4.5 12.3-16.6l4.2-9.9 4.4-.3 4.5-.3-.3 14.8c-.2 8.5-.8 15.8-1.4 17.1-2.4 4.6-7.4 6.6-18.2 7-21.8.9-31.6-5-31.6-19 .1-7.8 2.9-13.3 10.8-20.5 5.9-5.5 6.7-5.9 7-4 .1 1.2-.5 4.7-1.4 7.7zm18.4-4.4c2.3.4 4.2 1 4.2 1.4 0 1.1-5 13-7.6 18.1-1.3 2.6-3 4.9-3.9 5.2-2.8 1.1-4.5-.4-4.5-3.9 0-3-.4-3.5-3-4.1-3.4-.6-3.7-1.9-1.6-7.8.8-2.2 2-6.1 2.6-8.6l1.2-4.7 4.2 1.9c2.3 1 6.1 2.1 8.4 2.5zm-1015.7 6.5c-.8 3.8-.9 4-1 1.2-.1-1.7.2-3.9.5-4.8 1.1-2.9 1.4-1 .5 3.6z"/>
  <path d="M674.8 57.1c-.3.8-.2 2.1.3 3 .7 1.3.2 1.8-2.1 2.3-3.3.6-3.8 2.4-2 7.1 1.2 3.2 0 3.7-11.4 5.4-4.3.6-8.2 1.4-8.7 1.7-1.5.9.1 2.4 2.6 2.4 3.7 0 3.6 1.2-.4 5.5-2.6 2.8-6 4.9-10.9 6.8-8.5 3.4-15.3 9.1-17.7 14.9-2.9 7-2.3 16.8 1.5 24.4 3.2 6.5 6.2 9.3 14.5 13.8 7.4 3.9 14.2 3.7 19.1-.6 4.6-4 5.9-7.1 7.4-17.3 2.3-14.9 6.7-25.5 13.9-33.7 2.3-2.5 4.1-5.1 4.1-5.8 0-4.4-10.7 7.4-14.9 16.5-3.1 6.7-4.2 10.7-6.7 24.3-1.4 7.9-2.2 9.9-4.9 12.8-2.7 2.8-4 3.4-7.4 3.4-7.6 0-18.5-7-22.3-14.3-2.3-4.5-3.4-13.6-2.4-19.2 1-4.9 7.4-11.8 14.1-15 3-1.4 5.9-2.5 6.4-2.5.7 0 1.1 2.4 1.1 5.8 0 10.6 5 13.3 11.3 6.2 5.9-6.4 9.2-11.9 8-13.1-.8-.8-2.6.9-6.2 5.9-7.5 10.3-10.1 10.5-10.1.5 0-5.9 1.2-7.6 6.7-9.4 5.4-1.7 10.3-4.4 13.7-7.3 2.4-2.2 3.9-2.6 8.5-2.5l5.6.1-5.8 2.8c-6.5 3.2-9.7 5.7-9.7 7.7 0 1.7 2.7 1.7 3.7-.1.8-1.4 9.1-5.8 13.3-7.1 1.4-.4 5.8-2.3 9.9-4.2 6.1-2.8 7.2-3.7 6.8-5.3-.3-1.1-.3-2 0-2s4.8 1.3 10 3c10.7 3.4 11.3 3.5 11.3 1.6 0-1.4-16.4-7.2-26.6-9.4l-3.9-.9 6-1.2c8.1-1.6 8.5-1.8 8.5-3.5 0-2.5-6.1-3.8-20.1-4.3-11-.5-13.7-.3-14.1.8zm22.7 2.8l4 .7-6.6 1.2c-9.5 1.7-13.3 1.5-15.4-.8-1.8-2-1.7-2 6.1-1.9 4.3 0 9.7.4 11.9.8zm-10.2 10.3c7 4.2 7.1 4.3 4.2 4.9-1.7.4-5.6.7-8.7.8-4.3.1-5.6-.2-5.2-1.2.2-.7-.7-2.8-2.1-4.7-1.4-1.9-2.5-3.5-2.5-3.7 0-.2 1.6-.3 3.6-.3 2.4 0 5.9 1.4 10.7 4.2zm-21.1 11.3c-1.2.9-3.9 2.3-5.9 3.1l-3.8 1.5 3.3-3.1c1.9-1.8 4.3-3 5.9-3h2.7l-2.2 1.5zM1585.5 64c-1.2 2 6.7 11.3 10.8 12.6 2.4.8 2.2 1.8-2 8.2-11.9 18-18.6 25.2-36.4 38.7-18.9 14.4-25.2 21.5-26.5 30.1-2 13.4 5 19.4 22.8 19.4 15.8 0 25.3-8.7 32-29.3 3.7-11.5 12.8-30.5 16.8-35 3.4-3.9 3.6-4.7 1.6-4.7-4.5 0-14.9 18.8-21.7 39.2-6.2 18.9-14.8 26.8-29.1 26.8-12 0-18.1-3.1-19.1-9.8-1.6-9.9 4.1-18.2 21-30.7 6.5-4.9 14.2-11.1 17.2-13.9l5.3-5.1-3.6 5.5c-4.3 6.6-10.6 25.2-10.6 31.4 0 11.6 10.7 3.1 20.6-16.4 3.6-7.2 10.5-29.9 9.2-30.6-1.7-1.1-2.6.8-5.4 10.6-3.1 11.1-9.8 25.4-15.1 32.4-5.3 6.9-6.8 7.2-6 1.2 1.1-8 8.3-24.5 14.7-33.6 3.2-4.7 7.8-11.6 10-15.3 2.9-4.8 4.5-6.5 5.3-5.9 2.2 1.8 17.1 4.3 28.7 4.9 11.1.5 11.7.5 16.8-2.1 4.9-2.5 5.2-2.9 5.2-6.4 0-5.8-4.1-8.7-16.3-11.6-2.4-.6-2.8-.4-2.5 1.1.2 1.2 1.9 2.2 4.9 2.9 7.3 1.8 10.9 4.1 10.9 6.9 0 5.4-12.2 8-26 5.6-4.1-.8-3.9-.9 3.3-1 9.7-.1 10.6-2.1 2-4.6-3.2-.9-9.1-3-13-4.7l-7.3-3v-3.9c0-4.6-2.1-5.3-3.6-1.3l-.9 2.7-4.4-3.4c-2.5-1.9-4.6-4-4.9-4.7-.8-2.5 9-1.1 29.1 3.9 7.3 1.9 9.7 1.9 9.7 0 0-.8-11-3.9-23.9-6.6-8.4-1.7-18.7-2-19.6-.5zm28.4 21.5c3.4 1.3 3.1 1.4-6.1 1.4-5.4.1-9.8-.2-9.8-.5s.9-1.9 2.1-3.5l2-2.9 4.2 2.1c2.2 1.2 5.7 2.7 7.6 3.4z"/>
</svg>
