<svg xmlns="http://www.w3.org/2000/svg" version="1" viewBox="0 0 1598 558">
  <path d="M2.5 38.2c1.7 5.6 10.2 26.1 14.1 34 9.8 19.6 34.2 47.3 55.4 63 36.1 26.8 59.7 37.1 100.1 43.8 34.3 5.7 70.6 4 107.5-5 27.7-6.7 38.2-10.9 80.9-32.3 21.3-10.7 31.5-17.1 43.4-27.6 9.6-8.5 20.2-16.2 21.4-15.8.6.2 3.1 6.6 5.4 14.3 2.4 7.6 6.5 19.1 9 25.4 15.7 39.2 31.9 65 55.3 88l11.8 11.6-1.9 2.3c-2.3 2.8-3 2.4-9.5-6-4.2-5.5-8.4-8.2-8.4-5.4 0 .7 1.6 3.7 3.6 6.6l3.5 5.3-2.2 1.7c-2 1.5-2.1 2.2-1.5 7.3.6 5.1.4 5.9-1.5 7.5-2 1.6-2.4 1.6-7.6-.1-3.1-1.1-7.2-1.8-9.2-1.6-5.4.5-5.3 3.1.6 9l4.8 5-5.2 4.7c-7.2 6.4-19.1 12.8-36.9 19.6-18.9 7.2-42 16.8-50.4 21.1-7.4 3.7-20.7 14.4-26.3 21.2-7 8.4-11.7 20.3-11.7 29.4 0 7.3 2.8 19.5 6 26.4 8 16.8 33.3 29.8 54.4 28 14.1-1.3 24.9-10 33.8-27.3 6.1-11.8 7.9-16.9 13.3-37.6 5.9-22.7 8.5-29.4 17.4-44.7 4.6-8 9.5-16.4 10.7-18.6 1.4-2.5 3.7-4.8 5.9-5.8l3.6-1.7 4.8 4c4.8 4.1 10.3 6.2 11.4 4.4.3-.5-1-5.8-2.9-11.8-1.9-5.9-3.4-12-3.3-13.4.1-1.4-.1-4.1-.5-5.8-.4-1.8-.4-3.8 0-4.4.4-.7 8.6 6.8 21.3 19.4 19.6 19.6 24.8 23.6 26.6 20.8.3-.6-5.7-7.8-13.9-16.4-8-8.3-17.6-19-21.5-23.7l-7-8.5 1.9-3c1-1.6 2.3-3.1 2.8-3.3.5-.1 4.6 2.7 9.1 6.2 31.2 24.8 61.4 37.2 107.6 44.2 13.4 2.1 56.3 3 73.2 1.5 14.7-1.2 63.1-8.8 81.8-12.7 18.9-4.1 56.9-15.3 83.5-24.7 12.8-4.5 41.9-18.9 58-28.7 32.8-19.8 86.3-58.6 112-81.2 6.9-6 25.6-18.8 26.4-18.1.3.4.6 2.5.6 4.9 0 5 3.1 21.3 6.6 34.4 5.2 19.4 19.5 51.5 30.5 68.5 7 10.8 16.3 21.8 29.4 35 22.4 22.6 42 37 69 50.8l8 4.1-8.8 1.3c-17.8 2.6-33.7 7.7-33.7 10.8 0 5.5 7.5 12.3 19.5 17.5 7 3.2 7.4 3.5 6.7 5.9-1.7 6.2-.5 29.5 2.4 46.1 5.2 30 3.7 51.2-4.7 67-3.9 7.3-15 20.3-23.6 27.5-16.7 14.1-18.3 16.1-18.3 22.5 0 9 8.7 19.6 20.6 25.2 13.6 6.4 37 8.6 56 5.3 20.1-3.5 47-15 62.6-26.8 12-9 21.7-21.7 21.8-28.4 0-2.8-6.8-15.7-13-24.8-2.7-3.8-10.8-14.4-18.1-23.5-27.3-34.3-29.4-38.7-26.9-57 1.6-12 2-13.3 3.9-12.7 13.7 4.2 40.6 11.1 47.5 12.3 12.9 2.3 16.6.1 11.1-6.4-5.5-6.5-23.1-13.1-45.7-17.2-5.4-1-10.2-2-10.5-2.4-.9-.8 3.1-9.9 6.6-15 2.8-4.1 3.3-4.4 5.9-3.6 49.4 16 82.1 23.5 115.2 26.1 16.8 1.3 30.4.8 50.1-2.1 26.3-3.9 38.3-7.5 57.4-17.5 35.6-18.5 64.7-38.8 83.7-58.1 18.9-19.3 24.2-28.1 19.1-32-3.3-2.5-4.7-1.5-8 5.5-2.5 5.4-5.8 9.5-15.3 19.4-16.5 17.2-39.4 34.3-67 50.2-32.4 18.7-44.7 23-78.2 27.5-34.5 4.7-75.1.3-120.8-13-4.1-1.2-9.5-2.8-12-3.5-8.7-2.5-20.5-6.5-21.8-7.4-1.2-.7-1.2-1.2-.1-2.9 1.5-2.4 1.3-2.7-1.8-3.6-1.6-.5-2.8-.1-4.4 1.5-1.9 1.9-2.5 2-5.9.9l-3.8-1.2.5-6.2c.7-7.7-1-14.1-4.2-16.2-3.4-2.2-4.4-1.2-3.4 3.8 1 5.5 1.1 14.5.1 15.2-.4.2-4.1-.8-8.2-2.4-4.1-1.5-8.4-3.1-9.5-3.4-1.6-.6-1.7-.9-.5-1.7 2.4-1.5-.7-2.9-6.3-2.9-11.4 0-49-21.8-70.7-40.9-18.5-16.2-35.1-34.9-45.5-51-8.7-13.4-20.3-38.3-26-55.7-5.9-17.9-11.5-48.7-10-55.3.5-2.3.1-2.9-2-3.9-1.4-.7-3.2-1.2-3.9-1.2-2 0-30.7 20.1-38.4 26.8-7.2 6.4-25.5 20.6-47.7 37.4-43.1 32.5-92.5 60.9-124 71.4-49.6 16.4-73.9 22.8-102.5 26.9-6.3.9-14.6 2.2-18.5 3-18.5 3.6-40.9 5.6-63.9 5.7-26.3 0-38.6-1-60.6-5.3-25.6-5.1-50.1-14.5-67.2-26-7.4-5-26.8-19.9-26.8-20.7 0-.3 1.1-2 2.6-3.9 1.4-1.8 2.2-3.8 1.9-4.3-1.1-1.8-6-1.1-7.3 1-.7 1.1-1.7 2-2.4 2-2 0-11.5-8.9-19.8-18.5-21.4-24.9-38.9-58.2-51.9-99-6-18.7-7.8-22.1-12.3-23.3-4.3-1.2-7.7.7-21.4 11.7-26.8 21.8-26.2 21.4-58.9 37.6-17 8.4-35.3 16.9-40.5 18.9-18.1 6.8-47.7 13.7-67.1 15.7-15.8 1.6-39.3 2-49.9.9-21.2-2.2-47-7.9-59.5-13-18.5-7.6-27.8-12.8-47-26.6-19.4-13.9-31.8-26.1-45.9-44.8-8.1-10.7-11.1-16.1-19.7-34.9C9.3 40.3 6.6 36 3.3 36c-1 0-1.2.6-.8 2.2zm479.4 223c2.3.8 2.3 1 .8 2.6-1.6 1.5-1.9 1.4-5-1.7-3.1-3.2-3.1-3.3-.7-2.6 1.4.4 3.6 1.2 4.9 1.7zm15.1 14.4c1.1 3.7 1.9 6.8 1.7 7-.2.2-2-1.4-4.1-3.5l-3.8-3.9 1.8-3.1c1-1.7 1.9-3.1 2-3.1.1 0 1.2 3 2.4 6.6zm-14-.7c0 1.4-3.5 7.3-10.6 18.1-3.5 5.3-8.7 14.3-11.5 20-5 10.1-14 23.2-22.8 33.2-3.5 4-4.7 4.6-6.9 4.2-2.2-.4-4.1.6-9.7 5.2-8.5 6.8-22.5 13.7-32.2 15.8-7.5 1.7-20.3 2.2-20.3.8 0-1.4 12.6-14.9 24-25.7 6.3-6 19.9-18 30.2-26.7s19-16.2 19.3-16.8c.8-1.4-2-2.3-4.8-1.7-6.3 1.6-64.5 53.8-73.3 65.8-4.1 5.6-4.1 7.9.1 9.1 5.1 1.6 21.5 1.2 28.3-.6 3.5-.9 6.5-1.6 6.7-1.6.2 0-4.2 4.6-9.8 10.3-5.6 5.7-11.8 12.6-13.7 15.5-1.9 2.8-4 5.2-4.6 5.2-2 0-9.5-9-12-14.5-8-17.5-6.6-35.9 3.8-50 5-6.6 18.9-18.5 26-22.1 7.3-3.7 34-14.7 49.8-20.6 16.5-6.1 29.2-12.7 36.8-18.9 5.8-4.9 7.2-5.6 7.2-4zm747.7 60.7c8.1 3.1 15.2 6 15.7 6.5.8.7-9.6 23.9-10.7 23.9-1.2 0-13.6-2.4-21-4.2-8.8-2-8.9-2-6.8-3.9 2.8-2.6 2.6-5.4-.4-8.4-2.8-2.9-6.5-3.2-10.4-.9-2.6 1.6-2.9 1.4-13-4.2-11.8-6.6-12.1-6 4.4-10 8.5-2 19-3.8 25.7-4.3.9 0 8.3 2.4 16.5 5.5zM446 359c-8 30.3-17.8 46.7-31.8 53.9-5.8 3-18.6 2.9-27.8-.1l-6.6-2.2 2.8-2c10.3-7.5 48.2-43.9 59.6-57.4 3.9-4.5 7.3-8.1 7.5-7.9.2.3-1.4 7.3-3.7 15.7zm811.4-13.4c2.2.9 2.1 1.5-1.8 7.2-1.8 2.7-4.1 7.3-5.2 10.1-1.2 3.5-2.3 5.1-3.5 5.1-1 0-2-.4-2.3-.9-.3-.5 1.4-5.1 3.9-10.4 2.5-5.2 4.5-9.9 4.5-10.6 0-1.2 1.9-1.4 4.4-.5zM1203 353c0 .5-.5 1-1.1 1-.5 0-.7-.5-.4-1 .3-.6.8-1 1.1-1 .2 0 .4.4.4 1zm6.7 13.4c5.9 2.4 13.2 5.1 16.1 6.1 2.8.9 5.2 1.8 5.2 1.9 0 .2-3.1 6.8-6.9 14.7-12.7 26.7-18.2 45-18.5 61.9-.3 20.9 7.3 27.4 31.9 27.4 16.5 0 21.2-3.7 7.9-6.2-13.6-2.4-20.4-8.2-20.4-17.3 0-2.6 1.5-10 3.4-16.6 6.1-21 8.6-32 8.6-38.2 0-5.2-.3-6.1-2.1-6.6-1.1-.4-2.1-.5-2.3-.3-.1.1-1 4.2-1.9 9-1 4.8-4.2 17.4-7.2 27.9-5.7 19.9-6.5 25.7-4.1 31.2 1.5 3.7 7.5 9.3 12 11.3l3.1 1.3h-5c-7.8-.1-11.6-1.9-14.5-7-2.2-3.9-2.5-5.5-2.4-14.4.1-11.5 3.2-26 8.7-40.2 3.2-8.1 16.3-35.3 17.1-35.3 1.2 0 6.6 2.3 6.6 2.8 0 .4-.7 5.6-1.6 11.6-3 20.7-.4 27.2 23.2 56.6 8.6 10.7 18.1 23 21.2 27.4 5.9 8.4 13.2 21.8 13.2 24.2 0 3.4-5.7 12.3-11.9 18.5-19.3 19.3-58.5 34.9-87.8 34.9-26.5 0-47.3-12.3-47.3-27.9 0-4.7 1.7-6.6 17.1-19.8 22.6-19.2 31.4-36 32.6-61.8.4-10.2.1-14.8-2.5-31-3.7-23.2-4.6-33.4-3.7-43.1.4-4.1.9-7.4 1.1-7.4.2 0 5.2 2 11.1 4.4zm-795.2 4.7c-11.6 11.8-28.1 26.6-24.5 22 3.1-4 28.8-28.1 30-28.1.2 0-2.2 2.7-5.5 6.1zm819-1.1c.8 1.3-.5 1.3-2.5 0-1.3-.8-1.3-1 .2-1 .9 0 2 .4 2.3 1zm11.9 1.6c1.7.7 2.2 3.4.7 3.4-2.3 0-6.2-2.1-5.6-3 .7-1.1 2.6-1.3 4.9-.4zm25.8 4.4c15.9 3.2 24.9 6.3 32.5 11.3 4.8 3.1 4.8 3.2 1.9 3.5-3.8.5-21.5-3.8-43.9-10.5-6.5-2-8.6-3-8.2-4.1.3-.7.5-1.8.5-2.3 0-1.3 1-1.2 17.2 2.1z"/>
  <path d="M92 168.4c0 .8 2.6 3.2 5.7 5.3l5.8 3.8-4.2.3c-2.3.2-4.6.8-5.1 1.5-.9 1.2-3.6 12.9-4.8 20.5-.3 2.4-1.2 4.6-2 4.9-.9.3-1.2 1.3-.9 2.3 1.5 4.6-10.7 27-28 51.5-11.8 16.8-12.9 18.7-15.5 26.8-4.3 13.3-1.1 26.4 9 36.8 5.4 5.6 12.8 8.1 23.3 8.1 10-.1 14.2-2.7 18.6-11.5 3.3-6.5 3.5-7.4 4.2-22 1.6-31.2 4.7-51.5 10-66.1 3.5-9.6 3.6-11.3.7-12.2-2.8-.9-3.9.8-7.7 11.2-5.2 14.3-8.3 34.9-10 66.4-.7 12.4-1.2 15.3-3.4 20.2-3.2 7-7.1 9.8-14 9.8-11.9 0-16.3-3.1-22.7-15.7-4.7-9.1-3.8-20 2.5-32.4 2.1-4.1 14.7-22.1 15.1-21.6.2.2-.6 3.6-1.7 7.6-1.5 5.3-1.8 7.6-1 8.4.7.7 1.1 5.7 1.1 12.8v11.7l3 .7c3.5.8 4.6.2 6.4-3.4 1.8-3.3 6-19.9 7.6-29.6.7-3.9 3.4-17.1 6.2-29.4 2.7-12.4 4.7-23.2 4.5-24.2-.4-1.5.1-1.7 4.8-1.2 9.9 1 13-1.6 8.9-7.6-1.6-2.2-1.6-2.4 0-3.3 2.6-1.4 1.9-4.2-2.4-9.9-3.9-5.3-4.4-7.5-1.2-6.1.9.5 3.9 1.8 6.5 3 2.7 1.2 5.9 2.2 7.2 2.2 1.3 0 2.7.5 3 1 .4.6 2.9 2.2 5.7 3.6 3.8 1.9 5.3 2.3 6.2 1.4 1.3-1.3 1.9-.8-15.5-13.6-6.8-5-14.3-10.1-16.6-11.3-4.9-2.5-9.3-2.8-9.3-.7zm9.3 23.6c1.6 2.6 1.6 3 .3 3-2.1 0-2.1 4.8-.1 7.4.8 1.1 1.5 2.3 1.5 2.8 0 1.2-5.8 1-6.5-.2-.8-1.2 1.5-16 2.4-16 .4 0 1.5 1.3 2.4 3zm-23.9 69.5c-1.4 7.7-2.7 14.1-2.9 14.3-.1.2-.6-1.4-.9-3.5-.4-2.3-.1-6.1.8-9.4 1.6-6.3 4.9-15.9 5.3-15.6.1.2-.9 6.6-2.3 14.2zM748 306.7c-12.9 1-31.8 6.3-32.8 9.2-.4 1.3 3.9 3.1 7.4 3.1 1.4 0 2.3.4 1.9 1-1.1 1.8.5 4.7 3.3 6 1.5.7 9.6 1.8 18.1 2.4l15.3 1.1-7.2 5.2c-5.9 4.3-7.5 5-9.5 4.3-2.7-1-3.5-.5-3.5 2.6 0 1.5-1.1 2.9-3 4.1-3.7 2.1-3.8 4-.5 5.3 1.7.7 2.5 1.7 2.5 3.4 0 2.2-.7 2.7-5 4-2.8.8-7.7 1.8-11 2.2-6.6.7-8.1 1.7-5.1 3.3 2.4 1.3 8.2 1.4 13.6.1 2.2-.5 4.2-.7 4.4-.4 1 1-4.5 9.5-12.1 18.5-4.3 5.2-9.5 12.8-11.6 16.9-3.7 7.3-3.7 7.5-3.7 19.5 0 11.1.2 12.4 2.8 17.7 5.6 11.5 23.6 27.4 38.2 33.8 10.6 4.6 22.5 7.1 39.8 8.3 22.1 1.5 39.1.1 46.9-3.8 10.2-5.1 12.8-9.4 12.8-21.1 0-8.3-3.4-14.9-11.3-21.7-27.9-24.1-44.3-43.3-52.4-61.6-2.7-6-3.7-7.1-6.7-7.1-5.4 0 2.7 15.9 17.7 34.7 10.3 12.9 20.7 23.4 33.6 33.7 9.4 7.5 12.5 13.6 11.9 23.6-.4 8.4-2.3 11.3-9.9 15.5l-5.4 3h-27c-26.7-.1-27.1-.1-36-2.8-16.6-5.2-31.5-15.3-40.8-27.7-6.2-8.2-8-14.6-7.5-26.5.5-11.8 3.5-18.3 14.7-31.5 4.4-5.2 9.6-12.6 11.5-16.4l3.4-6.9.7 4.7c.9 5.7.1 10.2-3.1 17.5-5.4 12.2-5.1 18.3 1.6 25.5 5.1 5.5 12.6 9.9 23.2 13.6 12.8 4.4 20.8 3.8 20.8-1.4 0-1.3-1.5-4.7-3.4-7.5s-4.9-8.9-6.7-13.6c-3-8.1-5.6-11.5-8.6-11.5-.7 0-1.3.9-1.3 2 0 3.2 6.9 19.6 10.2 24.1 3.7 5.1 3.1 7.4-1.5 6.5-6.1-1.2-16.5-5.7-21.8-9.4-10-7-11.3-12.8-5.9-26.2 3.5-8.5 4.3-15 3-23.8-.5-3.2-.5-3.2 7.8-6.6 7.9-3.2 12.2-5.9 12.2-7.8 0-2.3-5.7-3-14.8-1.8-5.2.6-9.5 1-9.7.8-.3-.2 4.1-3.7 9.7-7.8 10.4-7.7 13.2-11 10.9-13.3-.8-.8-7-1.4-19.1-1.7-9.8-.3-18.2-.9-18.6-1.2-1.8-1.8 11.6-7.6 24.4-10.4 4.5-1 8.2-2.2 8.2-2.5 0-1.2-6.7-3.9-9.2-3.7-1.2.1-4.3.3-6.8.5zm9 44.7c0 .2-1.3.9-3 1.5-2.4.8-3 .7-3-.5 0-.9 1-1.4 3-1.4 1.7 0 3 .2 3 .4z"/>
</svg>
