<svg xmlns="http://www.w3.org/2000/svg" version="1" viewBox="0 0 1765 353">
  <path d="M46 3.5c0 3.1 51.3 83.2 65.4 102 2.9 3.8 7.9 10.5 11.2 14.9 3.2 4.3 6.6 8.8 7.4 9.9 1.5 2 1.4 2-8.6 1.4C79.9 129 27.7 111.6 9.1 94.4c-4-3.7-7.5-6.4-7.8-6-.4.3-.2 1 .3 1.5 13.5 12.3 15.5 13.7 27.2 19.3 6.8 3.2 15.7 7.2 19.7 8.8 15.9 6.3 54.9 14.6 73.8 15.7l10.8.6 9.2 9.2c5.1 5 13.3 11.9 18.2 15.3 5 3.4 13.7 9.6 19.5 13.8 14.2 10.4 30.1 21.1 41 27.6 4.9 2.9 8.6 5.4 8.1 5.6-.5.2-4.4-.7-8.7-1.9-4.4-1.2-9.5-2.2-11.4-2.3-3.1-.1-3.5.2-3.8 2.6-.3 2.7 4.9 11.6 11.4 19.5 2.9 3.6 2.1 4.1-2.9 1.9-2.2-.9-3.3-2-3.4-3.6-.5-5.8-3.3-3.1-3.3 3.1 0 2.8-.7 6.4-1.6 8.2-2.3 4.3-11.6 14-18.9 19.5-19.1 14.5-26.3 24.8-27.2 39.2-.5 6.8-.3 8.4 1.9 13.2 4.5 9.9 13.4 14.8 26.7 14.8 15.3 0 20-4.9 27.9-29.2 4-12.3 6.1-16.9 10.4-23.3 3-4.5 7.2-11.3 9.3-15.2l3.8-7.2 5.1 2.6c9.3 4.7 20.7 9.3 23.2 9.3 5.2 0 2.2-7.3-10.8-26.5-4.1-6.1-7.3-11.6-7-12.3.2-.7 5 1.2 13.2 5.3 20.9 10.5 32.4 15.4 53 22.7 24.8 8.7 37.4 12.4 53 15.4 34.9 6.8 88.2 7.3 110 .9 34.4-10.1 61.3-22.4 83.5-38.3 25.8-18.4 34-25.6 51.8-45.2 16-17.5 23.7-27 35.9-44.5l9.3-13.4 5.5-1.1c22.1-4.4 58.8-17 81.9-28.1 15.8-7.7 16.5-7.9 18.5-6.2 1.2.9 12.2 11.7 24.6 23.9 65.1 64.2 99.8 87 141.5 92.9 13.5 2 40 1.9 50.6 0 7.6-1.5 24.7-5.7 28.4-7.1.9-.4 1.5 0 1.5.9 0 .8-2.1 2.2-5.2 3.3-7.2 2.6-7.7 5.2-1.1 5.6l4.8.3-10.3 5.3c-5.8 3-10.1 5.9-9.9 6.5.2.7 2.5 1.3 5 1.5 4.2.3 4.6.5 3.2 1.8-5.4 5.5 5.1 4.8 16.5-1.1 2.4-1.2 3.5-1.4 4.4-.5 2 2 2.1 36.2.1 47.1-.9 5.2-1.9 15.2-2.2 22.4-.4 12.2-.3 13.3 1.9 17.5 8.5 16.5 37.5 13.7 46.4-4.5 3.4-7 4-12.8 3.3-29.4-.5-10.9-1.4-16.4-4.2-27.6-2-7.7-4.8-18.5-6.2-24-1.4-5.5-2.5-10.8-2.5-11.7 0-1-.7-1.8-1.5-1.8-2.4 0-1.9 3.7 4.6 28.8 6 22.9 6.2 24.2 6.7 39.3.5 17.7-.5 22.6-5.9 29.2-6 7.3-19 11.5-27.3 8.7-4.8-1.6-9.5-5.6-11.2-9.7-1.8-4.3-1.8-15.3.2-29.3 1.4-10.5 3.3-17.5 3.4-12.9 0 2.6 3.1 3.2 6 1.1 1.4-1 3.1-3.9 3.9-6.3l1.4-4.4 1.8 4c1 2.2 1.8 4.6 1.8 5.3.1.7 1.1 3.6 2.2 6.3 1.7 3.9 2.6 4.9 4.5 4.9 4.2 0 4.7-5.1 4-38.3-.3-16.4-1-30.6-1.5-31.6-.8-1.4-.1-2.5 3.5-5.5 10.7-9 13.5-17.8 7.3-23.1-1.7-1.4-3-2.7-2.8-2.9 5.8-4.3 23.3-18.7 28.9-23.7l7.5-6.6 22.5-.7c12.4-.4 26.6-1.1 31.5-1.6 5-.6 16-1.4 24.5-2 8.5-.5 18.8-1.3 22.7-1.6l7.3-.7 2.1 4.9c8.5 19.9 22 44.3 32.7 59.4 11.9 16.7 29.9 36.3 42.7 46.5 25.5 20.5 67 39.2 102 46 20.7 4.1 31.7 4.8 61.5 4.2 52.2-1.2 79.2-6.2 116.8-21.7 28.2-11.5 58.1-29.4 80.7-48.1 17.3-14.4 49.8-47.8 62.4-64.1 12.2-15.9 12.4-16 19.9-13.9 1.8.6 3.2.6 3.2.1s-1.9-1.4-4.2-2c-2.4-.6-4.7-1.2-5.1-1.3-.4-.1 4.4-7.9 10.8-17.2 6.4-9.4 13.2-19.9 15.2-23.5 8-14.6 17.3-29.7 19.2-31.4 2.4-2.2 2.7-3.6.8-3.6-2.5 0-7.4 6.6-15.3 20.4-4.3 7.6-14.2 23.3-21.9 34.8l-14 21.1-10-.6c-14.5-.8-28.1-3.9-53.1-12.2-24.8-8.2-40-14.3-61.9-25-28.3-13.8-65.5-37.2-92.8-58.3-24.3-18.8-27.9-21.2-31.4-21.2-2.3 0-5.8 3-19.3 16.4-32.5 32.2-52.3 45-90.5 58.5-39.6 14-74 21.4-126.5 27.5-11.3 1.3-20.8 2.2-21.1 2-1.1-.7-8.7-24.6-10.8-33.9-2.8-12.7-5-31.2-6.2-51-1-18-2.8-26-5.8-27-3.8-1.2-4.9.2-12.6 15.5-5.8 11.5-11.8 21.3-21 34.4-10.5 15-36.1 46.1-49 59.5l-9 9.4-16-.6c-24.9-1-54.5-6.8-79-15.5-12.4-4.5-38.6-17.6-52.3-26.2-22.3-14-48.7-36.8-70.8-61-13.3-14.6-13.7-15-17.7-15-3.3 0-4.9.8-9.1 4.4-19.7 16.8-42.7 33.7-60.2 44.2-10.5 6.3-19.5 11.4-20 11.4s-5.2-3.4-10.4-7.5-13.5-9.6-18.5-12.2c-8.8-4.6-9.2-4.7-19.5-5.1-10.4-.3-10.6-.3-16 3-5.4 3.2-6.3 4.3-21 24.8-3.5 4.9-13.9 20.9-21.3 32.6l-2.5 4.1-11.4 1.4c-17.5 2.2-76.1 1.9-94.8-.4-40.8-5.1-68.8-12.5-100-26.4-33-14.7-56.1-28.7-80.8-48.9-1.8-1.5-5-3-7.2-3.4-4.4-.8-5-.4-16.3 8.7-38.2 31.2-65.4 51-79.2 57.8-21.6 10.6-50.8 20.3-67.5 22.5-4.1.5-19.7 1.3-34.5 1.6l-27.1.7-5-5.7c-12.5-14-42.7-58.4-72.9-107.1C49 3.4 48 2 47 2c-.6 0-1 .7-1 1.5zm824 31.7c11.8 13.4 33.6 33.8 49.5 46.4 13.9 11 31.2 21.7 51 31.4 21 10.4 29.7 13.5 51.8 18.9 19.9 4.9 33.5 6.9 51.9 7.8l14.2.6-5.3 4.9c-6.3 5.8-26.7 22.1-33.1 26.5-6.6 4.5-26.3 14.7-35.5 18.4-4.4 1.7-14.1 4.7-21.5 6.7-12.1 3.1-15.2 3.5-30.5 3.9-19.3.6-33.2-.9-48.7-5.2-9.4-2.6-30.1-12-39.3-17.8-9.3-5.8-27.9-20.4-42-32.7-13.2-11.5-66.1-62.9-65.3-63.4.2-.1 8.6-5.2 18.8-11.2 12.7-7.5 23.9-15.1 36-24.6 18.5-14.6 24.1-19.2 26.8-22.1 1.1-1.1 3-1.7 5.7-1.6 3.9.1 4.4.5 15.5 13.1zm312.8-8.5c.6 1.8 1.4 9.5 1.7 17 1.3 29.8 5.7 55.9 12.9 77.2 2 5.8 3.5 10.6 3.3 10.7-.2.3-8.8 1-40.2 3.5-27.3 2.1-40.1 2.8-52.4 2.9h-12.3l7.1-7.8c8.5-9.2 33.9-39.3 40.3-47.7 9.3-12.3 22.2-32.4 28.2-43.9 8.5-16.6 8.7-16.9 9.6-15.9.4.4 1.2 2.3 1.8 4zm288 6.5c3.3 2.4 12.7 9.5 20.9 15.8 8.1 6.3 16.6 12.8 18.8 14.4 5.9 4.3 39.9 25.7 52.3 32.8 42.4 24.4 105.9 47.2 138.4 49.6l8.7.7-8.5 11c-18.7 24.2-50.8 56.1-73.8 73.4-21.9 16.5-52.5 33.2-78.6 42.9-30.8 11.5-50.9 15.3-90 17.2-45.3 2.2-71.2-.3-100.5-9.7-38.7-12.5-69-29.8-91.4-52.2-16-16-35.1-42.2-47.4-65.1-6.3-11.7-13.9-28.9-13.2-30.1.4-.5 2-.9 3.6-.9 12.6 0 64.1-7.9 91.4-14.1 28.5-6.4 65-18.8 82.7-28.1 22.2-11.6 43.5-28.2 63.6-49.4 13.6-14.4 13.9-14.6 23-8.2zM367.4 46.5c24.9 20.5 48.4 34.6 84.7 50.9 32 14.3 70.9 23.3 115.1 26.7 17.7 1.3 64.9.7 78.1-1.1 4.9-.6 9-1 9.2-.8.6.5-19.2 27.6-27.9 38.2-27.9 33.9-63.9 63.5-96.1 79.1-26.7 12.9-51.1 20.9-71 23.2-15.5 1.8-52.3 1.2-70.5-1.1-38.5-4.9-85.3-20.6-129.6-43.5-28.5-14.8-48.3-27.1-78.9-49.1-6.6-4.7-15.6-11.2-20-14.3-4.4-3.1-11.1-8.8-14.8-12.5l-6.8-6.9 25.3-.7c32-.8 39.1-1.6 56.8-6.6 27-7.7 52-19.1 68-31.1 5.2-4 14.2-10.6 20-14.8 10.6-7.7 31-23.9 38.5-30.5 2.2-1.9 4.5-3.5 5-3.6.6 0 2.1-1.2 3.4-2.6 3-3.1 6.8-2.7 11.5 1.1zm367.2 16.3c7.9 4 26.4 17.5 26.4 19.3 0 2.5-32.5 16.7-57.1 25-15.2 5-41.9 12.2-42.7 11.5-.2-.2 2.4-4.9 5.9-10.3 5.4-8.5 9.5-14.6 24.6-36 4.4-6.3 8.2-10.2 12.3-12.4 3-1.7 4.9-1.9 13.1-1.5 8.8.4 10.4.8 17.5 4.4zM1058 176c6 6-2.8 17.1-22.5 28.3l-8 4.5-1.2-4.7c-.6-2.5-1.2-5.6-1.2-6.8-.1-2.3.1-2.4 12.4-5.3 2.7-.6 5.5-1.6 6.3-2.2 2.4-2.1-.3-2.8-5.3-1.3-2.8.7-7.7 1.9-11 2.6-3.3.7-6.2 1.5-6.5 1.9-1.1 1.3-6 2.9-6.5 2.1-.2-.5 5.5-3.8 12.8-7.3 7.2-3.6 15.9-8.1 19.2-10.1 6.9-4.2 8.7-4.5 11.5-1.7zm-36 22.9c0 1.4-.6 1.7-2.7 1.3-2.5-.5-2.5-.6-.8-1.8 2.5-1.9 3.5-1.7 3.5.5zm1.3 12.2c-.8.8-1.4 0-2.3-2.5-.9-3-.9-4 .2-5.3 1.1-1.4 1.4-1.1 2.2 2.6.6 2.8.5 4.6-.1 5.2zm23.3-3.9c0 2.9.4 15.4.9 27.8.8 22.6.2 35.9-1.6 32.8-.5-.8-2-5.3-3.5-9.9-1.4-4.6-3.2-9.4-4-10.7-2-3.1-4.4-2.8-4.4.5-.1 3.4-4.1 11.9-5.5 11.6-.6-.2-1.1-9-1.3-23.3l-.2-23.1 3.1-1.7c1.7-.9 5.9-3.4 9.3-5.4 3.3-2 6.3-3.7 6.6-3.8.3 0 .5 2.4.6 5.2zm-827-.2c4.9 1.3 9.3 2.7 9.9 3.1.9.9.1 2.7-5.2 11.2L222 225l-2.8-3.2c-4.2-5-7.7-10-9.6-13.5-1.9-3.9-2-4.7-.3-4 .7.3 5.3 1.5 10.3 2.7zm798.4 3c.7 1.7 1.1 3.2.9 3.4-1.2.9-9.7 5.6-10.3 5.6-.4 0 .6-1.1 2.1-2.4 2.1-1.9 2.5-2.7 1.6-3.7-.9-.9-2.2-.8-5.9.5-2.6.9-5.2 1.6-5.8 1.6-1.4-.1 13.5-7.9 15-8 .6 0 1.7 1.4 2.4 3zm-780 2.6c4.8 1.9 7.5 6.2 6.5 10.2-1 4.1-6.6 18.2-7.2 18.2-.3 0-4.2-1.9-8.6-4.2-5-2.6-7.5-4.4-6.4-4.6.9-.2 1.7-1.2 1.7-2.2 0-1 2-5.3 4.5-9.4 2.5-4.2 4.5-8.1 4.5-8.6 0-1.3.3-1.3 5 .6zm785.9 6.6l-.2 4.3-.6-3.5c-.7-3.3-.5-5 .5-5 .2 0 .3 1.9.3 4.2zm-767.1 17c3.9 5.9 7.8 12.3 8.6 14.2l1.5 3.5-5.2-2c-4.3-1.7-19.3-8.6-20.5-9.5-.3-.2 2.9-9.1 5.9-16.3 1.2-2.9.9-3.2 9.7 10.1zm-43.5-4.8c.9.7 1.7 1.6 1.7 2 0 1.2-10.5 16.8-15.8 23.3-2.7 3.4-5.5 7.6-6.2 9.4-1.2 2.8-1.1 3.3.3 4.4 2.2 1.6 2.2 1.7-1.4 10.8-3.5 9.2-3.6 14-.1 14.5s12.6-4.2 18.2-9.4c2.7-2.6 5-4.2 5-3.6 0 1.4-6.9 21.2-8.5 24.2-1.8 3.4-6.4 7.7-9.8 8.9-8.6 3.3-23-.2-29.1-6.9-4.2-4.7-5.1-7.4-5.1-16 0-5.2.7-7.8 3.1-13 4.2-8.7 8.6-13.5 21.9-24 12.8-10.2 17.7-15.2 20.7-21.5 2.4-4.9 2.5-5 5.1-3.1zm14.4 8.4c6.3 3.2 8.1 4.6 7.6 5.8-.4 1.2-.8 1.3-1.3.3-.5-.6-1.4-1-2.1-.7-1.7.7-11.3 18.8-13 24.7-2.2 7.3-15.5 19.7-23.7 22.1-4.1 1.1-4.1.3-.2-9.8 4-10.5 4.7-14.2 2.6-14.2-2.5 0-2-1.2 4.2-9.2 3.1-4.1 8.1-11.1 11.1-15.6 3-4.6 5.7-8.1 6-8 .3.2 4.3 2.2 8.8 4.6zM232 252c-1.1 2.2-2.3 4-2.5 4-.3 0 .4-1.8 1.5-4s2.3-4 2.5-4c.3 0-.4 1.8-1.5 4z"/>
  <path d="M1381.5 100.9c-.6.6-5 3.1-10 5.6-15.4 8-36 20.4-38.9 23.4-3.5 3.6-3.9 8.1-.9 9.6 2 1 1.4 1.5-7.3 5.8-5.2 2.6-9.4 5.1-9.4 5.7 0 1.3 6 1.3 13.6 0 3.2-.6 7.2-1.3 8.9-1.5 2.8-.5 2.8-.4 1 .9-4.2 3.1 1 3.1 16.3 0l3.2-.7v8.1c0 7-2.7 22.3-4.4 25.1-1.7 2.7-3.4 16.7-2.9 23.3 1 13.7 10.3 27.8 24.5 37.2 7.2 4.8 18.5 7.6 30.5 7.6 10.6 0 15.1-1.6 19.6-7 3.3-3.8 4.1-8 3.5-17.8-.7-10.5-3.9-17.7-14.1-32-12.7-17.7-16-25.3-17.3-39.4-.4-5.3-1-7.6-1.4-6.3-.7 1.9-.5 8.7.5 14.8 1.1 6.6 6.4 17.1 14.8 29.1 12.7 18.3 15 23.7 15.5 35.6.3 8.7.2 9.8-2 13-4.4 6.5-7.9 8-18.5 8-17.3 0-27.1-3.6-38.9-14.4-8-7.3-14-18.4-15-27.7-.6-6 1.5-21.3 3.2-24.1 1.7-2.7 4.4-18.2 4.4-25.5v-8.2l4.1-1.1c2.3-.6 4.4-.8 4.8-.5.3.4.6 10.6.6 22.8.1 12.5.5 22.9 1 23.7.8 1.1 1.1.5 1.5-2.5l.5-4 5.4 9.5c8.1 14.2 10.7 16.5 12.9 11.5 1.5-3.3 1.7-54.5.2-54.5-.6 0-1 9.4-1 26.2 0 14.5-.4 26.9-.9 27.7-1.1 1.7-4.2-2.3-10.1-12.9-2.4-4.1-4.8-8.2-5.5-9-1-1.1-1.4-6.9-1.6-20.8l-.4-19.4 10.6-4.3c18.9-7.7 34.9-18 34.9-22.4 0-2.2-6.1-5.6-12.5-6.9-2.8-.6-5.8-1.4-6.8-1.7-.9-.4-1.7-.3-1.7.4 0 .5 1.8 1.5 4 2.1 9.8 2.5 11.6 3.1 13.3 4.4 1.5 1.2 1.6 1.7.6 3.4-1.6 2.5-11.6 9.1-20.6 13.6-6.2 3.1-21.6 9.6-22.7 9.6-.2 0-.6-1.7-.9-3.8-.4-2.1-1.4-4.6-2.3-5.7-1.5-1.9-1.5-1.9-.9.5.3 1.4.9 4.2 1.2 6.2.5 3.5.4 3.7-3.3 4.7-5.1 1.4-5.7 1.4-5-.4.3-.9-.1-1.8-.9-2.1-.8-.4-1.5-1.2-1.5-1.9 0-.8-.5-1.7-1.1-2.1-.7-.4-.9.2-.7 1.6.3 2-.4 2.4-4.7 3.6-6.6 1.8-26.3 5.4-28.9 5.4-3-.1 7.2-5.2 22.9-11.5 18.2-7.3 30.9-13.2 31.3-14.4.6-1.8-1.3-1.3-11.5 3.5-18.2 8.4-31.1 12.1-32.8 9.4-1.2-1.9 2.4-6.6 7.7-9.8 12.7-7.8 22.7-13.6 28.3-16.4 6.4-3.2 17.5-9.8 17.5-10.4 0-.8-2.6-.4-3.5.5zm-24.5 46c0 1-10.8 3.6-11.6 2.8-.6-.6 7.4-3.5 9.9-3.6.9-.1 1.7.3 1.7.8zM465 113.5c0 2.1 15.2 12.6 28.9 20 2.9 1.6 4.8 3.1 4.1 3.3-1.6.6-23.7-3.8-27.8-5.5-2.8-1.2-3.2-1.7-2.6-4.1.5-2.5.4-2.6-1-.9-1.1 1.4-2.2 1.7-4.5 1.2-2.9-.6-3.1-.5-3.1 2.4 0 5.2-3.8 11.8-8.9 15.5-2.5 1.8-9.9 6.2-16.4 9.7-13.1 7-22.9 15.4-26.8 23.1-3.1 5.9-3.7 17.5-1.5 25.3 2.3 7.6 9.3 14.8 19.6 19.8 9.6 4.8 16.8 6 30.6 5.5 12.6-.6 16.1-2 19.7-7.8 2.1-3.4 2.2-4.7 2.5-33.8.2-20.7 0-30.2-.7-30.2-.8 0-1.1 9.4-1.1 29.3 0 32.7-.3 34.2-7.1 38.2-3 1.8-5.1 2-17.9 2-13.5-.1-15-.3-21-2.8-10.1-4.3-16.8-9.4-20.4-15.7-2.9-5.1-3.1-6.2-3.1-15.5 0-9.1.3-10.4 2.7-14.6 4.5-7.6 13.2-14.8 26.5-21.8 13.6-7.1 21.6-13.5 23.4-18.6.7-1.9 1.9-3.5 2.6-3.5.7 0 1.3.2 1.3.5 0 1.2-12.3 25-14.3 27.6-2.9 4.1-9.1 7.9-12.7 7.9-3.3 0-3.8 1.4-1.5 4.4.8 1.1 1.5 4 1.5 6.4 0 5.4 2.5 15.2 5.1 20.4 1.8 3.4 2.3 3.8 5.9 3.8 2.8 0 4.2-.5 4.9-1.9 2.4-4.4 6.4-18.5 8.2-29.1 1.1-6.3 2.2-12.6 2.5-14 .5-2.2.4-2.3-.8-.9-.7.9-2.1 6.5-3.1 12.5-2.7 15.8-7.6 30.5-10.5 31.5-1.7.6-2.7.4-4.2-1.1-2.4-2.4-6-14.4-6-20.3 0-2.5-.4-5.7-.9-7-.9-2.2-.7-2.5 1.8-3 1.5-.3 5-2.6 7.8-5.1 4-3.6 6.2-7.1 11.4-17.5 4.3-8.8 6.9-13.1 8-13.1 1 0 5 1.4 9 3.1 4.1 1.7 8.2 3.3 9.2 3.6 3 .9 1.8-1.5-2-4.2-3.4-2.2-3.5-2.5-1.4-2.5 1.3 0 4.9.6 8 1.4 7.6 1.9 17.1 2.6 17.1 1.2 0-.6-2.8-2.5-6.2-4.1-7-3.4-26.1-15.3-29.8-18.5l-2.5-2.1 4 .6c2.1.4 8 2.4 13 4.5 10.2 4.2 20.4 7.4 21.2 6.6.3-.3-.5-.9-1.8-1.4-25.1-9.7-32.2-12.1-35.6-12.2-2.3 0-3.3.5-3.3 1.5zm-1 17.1c0 .2-.7.4-1.5.4s-1.5-.4-1.5-1c0-.5.7-.7 1.5-.4.8.4 1.5.8 1.5 1zm10 5l2.5 1.5-2.5-.7c-1.4-.3-3.2-1-4-1.5-1.3-.7-1.3-.8 0-.8.8 0 2.6.6 4 1.5zM705 112.4c-25.1 9.8-48.2 20.5-47.7 22.1.8 2.5 18.8.4 35.5-4.1 1.8-.5 2.2-.2 2.2 1.6 0 1.2-1 3-2.2 4.1l-2.3 1.8 2.6.1c3.6 0 3.9 1.5 3.9 20 0 15.1-.1 15.9-4 30-3 10.6-4.3 17.2-4.7 24.6-.7 12.4.6 18.3 5.6 26.2 6.5 10 15.8 14.2 31.4 14.2 8.8 0 13.6-1.3 17.1-4.5 5.2-4.8 3.3-13.6-9.9-45.3-2.9-7-6-19.7-7-28.5-.3-3.1-1-5.7-1.5-5.7-2.7 0 2.4 24.3 7.9 37.8 9.3 22.8 11.1 28.4 11.1 33.7 0 4.7-.3 5.6-2.7 7.3-7.1 5-23.9 4.7-34.3-.6-6.5-3.3-12.1-10.1-14.5-17.9-2.6-8.1-1.7-22.9 2-36.3l3-10.5.3 7.5c.1 4.1.9 8.9 1.7 10.7.8 1.7 1.5 3.3 1.5 3.6 0 .3 1.8 3.4 3.9 7 2.2 3.5 4.6 8.1 5.5 10.1 1.1 2.7 2.1 3.6 3.9 3.6 1.4 0 2.8-.7 3.1-1.6 1-2.5.6-75.2-.4-72.9-.5 1.1-.9 17.9-.9 37.2-.1 38.1-.4 39.8-4.9 31-1.2-2.3-4.2-8-6.7-12.7l-4.5-8.4V186c.1-6.3.7-14.4 1.5-18 .8-3.6 1.4-10.6 1.5-15.6v-9l7.8-3.7c4.3-2 10-4.6 12.6-5.8 3.3-1.4 4.5-2.4 3.8-3.1-.7-.7-4.3-.4-11.4 1.1-5.6 1.1-10.7 2.1-11.3 2.1-1.7-.1 7.9-4.8 18.6-9 10.4-4.1 12.8-5.5 11.7-6.5-.6-.7-20.9 4.1-34.3 8-9.8 2.8-37.6 8.7-38.3 8-.5-.5 19.4-10.4 27.8-13.8 3.6-1.4 13.5-5.3 22-8.7 15.6-6.1 18.8-7.6 18-8.3-.3-.2-11.1 3.7-24 8.7zm15 11c0 .4-18.1 8-19.2 8.1-.3 0-1 .3-1.4.7-1.3 1.4-2.4.9-2.4-1.1 0-1.4 1.6-2.3 7.3-3.9 13.7-4 15.7-4.5 15.7-3.8zm-9 13.6c-4.1 2.1-7.8 3.9-8.2 4-.5 0-.8-1-.8-2.3 0-2.1.8-2.5 7.3-3.9 10.1-2.2 10.1-2.2 1.7 2.2zm-11 2.6c0 1.4-.4 2.3-1 1.9-.5-.3-1-1.5-1-2.6 0-1 .5-1.9 1-1.9.6 0 1 1.2 1 2.6zm-.3 18.6c-.2 2.9-.3.8-.3-4.7s.1-7.9.3-5.3c.2 2.6.2 7.1 0 10zM77 137.9c0 1.1 1.2 2.9 2.8 4 2.6 2 2.6 2 .5 2.1-1.3 0-2.3.4-2.3 1s-4.5 1-11.6 1c-13 0-14.4 1.1-5.3 4.3 7.4 2.6 13.3 3.4 12.7 1.6-.2-.7-2.1-1.4-4.1-1.6-2-.1-4.5-.6-5.4-1.2-1.3-.8.6-1 7.3-1.1 5.3 0 9.5-.5 10.1-1.1.8-.8 2.4-.7 5.9.5 5.4 1.8 6.4 1.9 6.4.7 0-.5-3.1-2.5-7-4.5-7.8-4.1-9.3-5.6-5.6-5.6 1.4 0 2.6-.5 2.6-1 0-.6-1.6-1-3.5-1-2.8 0-3.5.4-3.5 1.9zM65.2 155.3c-1.4 1.6-8.2 15.9-8.2 17.2 0 .5-2.7 4.3-6 8.4-14.1 17.6-18.1 27-18.7 45.1-.4 11.4-.2 12.8 1.7 15.8 3.3 5.3 11.4 8.4 23 9 18.2.8 18.3.5 19.1-32.3.4-13.7 1-26.3 1.4-27.9.5-2 .4-2.7-.3-2.2-2.2 1.3-3.2 11.5-3.2 32.7v22.1l-2.9 2.9c-2.8 2.8-3.4 2.9-11.5 2.9-10.3 0-18.8-2.6-22.7-6.9-3.4-3.7-4.4-11.2-2.9-21.8 1.3-10 3.7-16.5 9.1-25.1 4.6-7.4 13.7-18.9 12.4-15.7-.4 1.1-1 10.2-1.3 20.2-.4 17.6-.3 18.3 1.5 18.3 2.7 0 4.3-4 4.3-10.7 0-3 .6-8.1 1.4-11.2 2.4-9.4 2.9-13.8 1.6-12.5-1.6 1.6-4.1 13.4-4.9 23.1-1 13.1-2.1 10.8-2.1-4.3 0-15.5 1.1-23.7 4.1-30.1 1-2.4 1.9-5.1 1.9-6 0-1 1.3-4.2 2.9-7.1 2.7-4.8 2.8-7 .3-3.9zM1667.1 215.1c-8.1 1.6-14.1 4-14.1 5.6 0 1.7.4 1.6 10-1.2 7.4-2.2 24-3.2 24-1.6 0 1.9-11.7 13.2-18 17.4l-5.5 3.7-.3-2.5c-.5-3.7-2.3-2.6-3.6 2-.8 2.9-2.4 4.8-5.8 7.2l-4.6 3.4-.7-6.8c-.4-3.7-1.1-8.7-1.5-11-.6-3.7-.4-4.4 1.4-5.7 1.6-1.1 1.8-1.7.9-2.6-.9-1-3.8.8-13 7.7-6.5 4.9-15.8 11.8-20.8 15.3-10.5 7.5-27 20.6-30.4 24.4-2 2.2-2.3 3-1.4 4.9 1.3 2.7 6.3 4 11.7 3l3.1-.5-3.5 2.4c-1.9 1.4-6.1 3.9-9.2 5.7-3.2 1.8-5.8 3.8-5.8 4.5 0 .6-1.3 2-3 2.9-4.2 2.5-4.1 5.1.3 4.2 2.9-.6 23.2-8.1 36.3-13.3l5.2-2.1.7 11.2c.9 14.7 2.9 25.9 5.7 31.6 1.2 2.5 4.7 7.1 7.7 10.2 4.8 4.8 7.1 6.1 16.4 9.8 17.8 6.9 31 8.4 38.9 4.5 3.6-1.8 4.8-4.3 4.8-9.6 0-9-3.5-17.7-12.2-30.7-6.9-10.1-16.4-30.1-18.3-38.2-.8-3.8-1.5-11.1-1.5-16.4V245l4.7-3.3c16.4-11.3 24.8-20 24.1-24.9-.3-2.2-.7-2.3-9.3-2.5-4.9 0-11 .3-13.4.8zm-21.5 35.5c-.4 1.1-14.5 9.4-16 9.4-.3 0-.6-2.7-.6-6 0-4.7-.3-6-1.5-6s-1.5 1.5-1.5 7.3v7.4l-4 1.8c-3.9 1.7-4.1 1.7-6 0-2.5-2.3-3.7-1.3-2.2 1.9 1.1 2.4.9 2.5-7.4 5.5-9.2 3.4-19.4 4.3-19.4 1.8 0-1.6 14.6-13.7 27.4-22.9 4.8-3.5 13.4-9.7 19-13.9l10.1-7.5 1.3 10c.7 5.5 1.1 10.5.8 11.2zm12.1.1c-.6 5.2 1 19.8 3 25.8 2.3 7.1 12.2 26.3 19.3 37.4 8.8 13.8 12.5 27.6 8.3 31.3-2.6 2.2-5.6 3-12.1 2.9-7.6 0-13.7-1.4-25.1-5.9-10.8-4.2-19.5-11.2-23-18.5-3.7-7.7-7.6-40.2-5.2-43.1.8-.9.5-2.3-.9-5.1l-2-3.9 3.2-1.7c1.8-1 3.5-1.5 3.8-1.2.3.2.8 4.6 1.1 9.6.7 10.6 3.1 17.7 6 17.7 2.2 0 5.2-3.1 5.9-6.1 1.2-5 4.5-.6 8.9 11.9 2.1 5.9 3.2 7.8 4.8 8 4.2.6 3.9-9-1.3-41.1-1.4-8.7-2.3-16.1-2-16.4.8-.8 7-5.2 7.5-5.3.2 0 .1 1.7-.2 3.7zm-7.8 22.3c1.2 7.4 2.4 17.1 2.7 21.5.4 7.6.4 7.8-1 4.5-2.4-6.1-6.4-13.6-8-14.9-2.3-2-4.6-.6-6.3 3.9-.9 2.2-2.1 3.9-2.7 3.7-1.6-.5-3.3-8.4-3.7-17.5l-.4-8 8-4c4.4-2.2 8.3-3.7 8.6-3.3.3.3 1.6 6.7 2.8 14.1zm-32.1 2.1c-.2 1.7-1.6 2.5-7 3.8-7.8 2-7.8 1.9 0-2.5 6.8-3.9 7.4-4.1 7-1.3z"/>
</svg>
